<ttFont>
          <CharString index="0">
            281 78 rmoveto
            -23 -17 -30 -11 -29 hhcurveto
            -35 -30 17 43 -3 hvcurveto
            43 24 22 120 21 vhcurveto
            127 44 callsubr
            -18 -26 2 48 17 callsubr
            100 -47 42 -79 -41 -99 -35 -27 -21 vhcurveto
            -7 -8 -9 -24 -23 vvcurveto
            -13 3 -9 5 -5 vhcurveto
            -1 4 4 -1 5 hhcurveto
            25 40 12 3 hvcurveto
            -71 callsubr
            -60 vlineto
            return
          </CharString>
          <CharString index="1">
            rmoveto
            -106 callgsubr
          </CharString>
          <CharString index="2">
            rmoveto
            -43 callgsubr
            -43 callsubr
            -73 callsubr
            vhcurveto
            390 -307 -92 callgsubr
            return
          </CharString>
          <CharString index="3">
            -95 callsubr
            hintmask 10010111
            -80 callsubr
            hintmask 00111011
            -41 callsubr
            hintmask 01011011
            -17 callsubr
            hintmask 00111011
            -72 callgsubr
            hintmask 10011011
            -104 callgsubr
            endchar
          </CharString>
          <CharString index="4">
            -61 callsubr
            -97 -113 15 callsubr
            77 -96 133 -75 callgsubr
            -23 -23 -38 -21 -44 hhcurveto
            -107 -50 91 89 hvcurveto
            13 vlineto
            3 47 rmoveto
            59 8 36 51 63 hhcurveto
            60 25 -38 -72 hvcurveto
            return
          </CharString>
          <CharString index="5">
            8 2 7 5 -91 callgsubr
            return
          </CharString>
          <CharString index="6">
            33 -79 callgsubr
            -236 175 rmoveto
            -26 callgsubr
            45 callsubr
            102 129 133 -93 90 -136 -34 callsubr
            vhcurveto
            return
          </CharString>
          <CharString index="7">
            431 -103 callsubr
            return
          </CharString>
          <CharString index="8">
            -35 24 -23 35 35 25 29 31 37 -25 21 -35 -33 -62 callgsubr
            return
          </CharString>
          <CharString index="9">
            -95 callgsubr
            -8 44 rlineto
            hintmask 10111100
            14 callgsubr
            -70 callgsubr
          </CharString>
          <CharString index="10">
            286 -101 callsubr
            return
          </CharString>
          <CharString index="11">
            -97 callgsubr
            hintmask 01110000
            -64 callgsubr
            return
          </CharString>
          <CharString index="12">
            rmoveto
            8 10 5 60 3 vhcurveto
            22 20 -89 callgsubr
            return
          </CharString>
          <CharString index="13">
            -86 callsubr
            158 166 rcurveline
            1 -1 21 callgsubr
            vhcurveto
            13 -21 -46 19 -25 hhcurveto
            endchar
          </CharString>
          <CharString index="14">
            396 -83 callsubr
            -3 -25 -2 0 -38 hhcurveto
            -65 callsubr
            return
          </CharString>
          <CharString index="15">
            hlineto
            36 5 -15 -78 hvcurveto
            33 5 rlineto
            22 -2 79 22 24 2 85 24 vvcurveto
            -33 -5 rlineto
            -79 -8 -27 -33 vhcurveto
            return
          </CharString>
          <CharString index="16">
            -81 callsubr
            -5 7 23 vvcurveto
            return
          </CharString>
          <CharString index="17">
            -2 0 -44 callgsubr
            vhcurveto
            7 -8 return
          </CharString>
          <CharString index="18">
            -25 -4 callgsubr
            274 -103 callgsubr
            return
          </CharString>
          <CharString index="19">
            -28 -4 -1 -63 -5 vhcurveto
            8 -40 rlineto
            return
          </CharString>
          <CharString index="20">
            vlineto
            -88 callsubr
            return
          </CharString>
          <CharString index="21">
            rmoveto
            -101 callgsubr
            return
          </CharString>
          <CharString index="22">
            -59 callgsubr
            144 -327 rlineto
            -67 -24 -55 -120 -46 hhcurveto
            -28 -18 2 1 -5 hvcurveto
            -5 -25 -49 -20 hvcurveto
            -11 13 21 -6 27 hhcurveto
            73 36 79 46 22 hvcurveto
            202 480 16 40 12 13 40 -10 callgsubr
            return
          </CharString>
          <CharString index="23">
            -86 callsubr
            188 76 rcurveline
            13 -5 -40 40 -12 hhcurveto
            return
          </CharString>
          <CharString index="24">
            -6 rmoveto
            -5 6 -2 7 vhcurveto
            25 5 17 8 25 4 24 4 39 5 23 4 -7 32 rcurveline
            -36 hlineto
            -33 -12 19 44 hvcurveto
            321 vlineto
            return
          </CharString>
          <CharString index="25">
            791 -84 callsubr
            return
          </CharString>
          <CharString index="26">
            -78 callsubr
            -48 4 return
          </CharString>
          <CharString index="27">
            -39 callgsubr
            -79 callsubr
            return
          </CharString>
          <CharString index="28">
            -45 -37 -82 callgsubr
            69 -5 10 -63 callsubr
            8 -44 rcurveline
            return
          </CharString>
          <CharString index="29">
            -2 -1 39 hvcurveto
            -9 40 rlineto
            return
          </CharString>
          <CharString index="30">
            649 -95 callsubr
            return
          </CharString>
          <CharString index="31">
            rlineto
            4 47 29 1 45 hhcurveto
            48 46 -2 -3 47 hvcurveto
            -11 44 rlineto
            return
          </CharString>
          <CharString index="32">
            -15 -12 -20 callgsubr
            274 -90 callgsubr
            return
          </CharString>
          <CharString index="33">
            rmoveto
            -10 -44 -39 -14 -3 hvcurveto
            188 -76 -102 callsubr
            return
          </CharString>
          <CharString index="34">
            216 -145 145 -219 -55 callsubr
            return
          </CharString>
          <CharString index="35">
            rmoveto
            30 14 -1 -6 18 hvcurveto
            6 16 rlineto
            3 7 2 7 18 vvcurveto
            5 -2 5 -2 3 vhcurveto
            -12 -4 rlineto
            -3 -7 -2 -1 -19 hhcurveto
            -25 137 hlineto
            16 3 26 3 5 vhcurveto
            1 5 -1 2 -1 2 rrcurveto
            1 -1 3 1 vvcurveto
            -15 -1 -17 -1 -6 -5 -175 -206 rcurveline
            -2 -1 -3 -1 vvcurveto
            -14 10 -4 8 vhcurveto
            137 hlineto
            -1 -123 rlineto
            return
          </CharString>
          <CharString index="36">
            68 vlineto
            9 16 21 5 16 hhcurveto
            63 18 -45 -63 hvcurveto
            return
          </CharString>
          <CharString index="37">
            2 1 -43 hvcurveto
            return
          </CharString>
          <CharString index="38">
            -5 11 -2 9 5 vvcurveto
            19 20 8 59 1 vhcurveto
            4 hlineto
            -9 43 -61 callgsubr
            50 12 -16 -63 29 hvcurveto
            return
          </CharString>
          <CharString index="39">
            898 -74 callsubr
            return
          </CharString>
          <CharString index="40">
            -30 callgsubr
            41 -1 11 -8 -12 vvcurveto
            -7 -3 -5 -3 -7 vhcurveto
            return
          </CharString>
          <CharString index="41">
            rlineto
            -4 -47 -29 -1 -45 hhcurveto
            -48 -46 2 3 -47 hvcurveto
            return
          </CharString>
          <CharString index="42">
            -39 -18 0 3 -25 hvcurveto
            9 35 callgsubr
            6 -6 -23 vvcurveto
            -264 vlineto
            return
          </CharString>
          <CharString index="43">
            -102 callsubr
            endchar
          </CharString>
          <CharString index="44">
            -53 callsubr
            -3 -30 -8 35 callsubr
            return
          </CharString>
          <CharString index="45">
            -54 callgsubr
            -11 callgsubr
            -46 callgsubr
            -144 -228 rlineto
            endchar
          </CharString>
          <CharString index="46">
            243 rmoveto
            3 2 4 7 119 -68 69 -108 return
          </CharString>
          <CharString index="47">
            -12 32 hvcurveto
            63 -24 32 -37 11 -79 28 -3 rcurveline
            -78 callgsubr
            8 -67 -71 28 return
          </CharString>
          <CharString index="48">
            -36 callgsubr
            105 return
          </CharString>
          <CharString index="49">
            23 callsubr
            -19 -67 callsubr
            return
          </CharString>
          <CharString index="50">
            15 -1 -1 1 -17 hhcurveto
            -12 -5 -18 -11 -27 -11 -32 -12 -35 -10 -16 -4 return
          </CharString>
          <CharString index="51">
            -53 callgsubr
            260 vlineto
            return
          </CharString>
          <CharString index="52">
            -203 -166 -170 -207 return
          </CharString>
          <CharString index="53">
            rmoveto
            -457 -727 14 -8 34 -3 8 8 rlinecurve
            453 720 rlineto
            13 -13 -32 -3 -7 hhcurveto
            endchar
          </CharString>
          <CharString index="54">
            -7 -27 -25 callgsubr
            return
          </CharString>
          <CharString index="55">
            -62 callgsubr
            endchar
          </CharString>
          <CharString index="56">
            189 -56 callgsubr
            return
          </CharString>
          <CharString index="57">
            9 -44 rlineto
            75 -38 callsubr
            return
          </CharString>
          <CharString index="58">
            vvcurveto
            -67 58 -35 59 vhcurveto
            5 hlineto
            return
          </CharString>
          <CharString index="59">
            -8 -22 11 -30 8 -8 rrcurveto
            return
          </CharString>
          <CharString index="60">
            43 52 -7 -60 callsubr
            -107 hhcurveto
            -224 -165 -141 -240 return
          </CharString>
          <CharString index="61">
            rlineto
            -4 8 -2 7 6 -40 callsubr
            return
          </CharString>
          <CharString index="62">
            -2 -1 43 hvcurveto
            return
          </CharString>
          <CharString index="63">
            12 callsubr
            -47 -17 -51 -15 9 -30 rcurveline
            1 7 6 0 7 hhcurveto
            32 17 -10 -47 hvcurveto
            -550 -87 callsubr
            return
          </CharString>
          <CharString index="64">
            203 161 165 208 return
          </CharString>
          <CharString index="65">
            21 -21 249 52 409 -20 return
          </CharString>
          <CharString index="66">
            1 44 26 -29 callgsubr
            return
          </CharString>
          <CharString index="67">
            vvcurveto
            16 18 7 49 1 vhcurveto
            4 hlineto
            return
          </CharString>
          <CharString index="68">
            -6 10 -3 9 7 vvcurveto
            21 28 5 44 vhcurveto
            4 hlineto
            return
          </CharString>
          <CharString index="69">
            -5 11 21 callsubr
            return
          </CharString>
          <CharString index="70">
            -46 callsubr
            -8 36 rlineto
            return
          </CharString>
          <CharString index="71">
            5 5 1 5 hhcurveto
            36 18 -15 -49 hvcurveto
            return
          </CharString>
          <CharString index="72">
            16 -9 32 -11 12 vhcurveto
            return
          </CharString>
          <CharString index="73">
            -128 -96 -105 -129 return
          </CharString>
          <CharString index="74">
            -60 callgsubr
            endchar
          </CharString>
          <CharString index="75">
            -35 26 -25 35 36 28 31 33 39 -25 21 -39 -33 -28 -29 -35 vhcurveto
            return
          </CharString>
          <CharString index="76">
            1 3 -39 hvcurveto
            9 -37 rlineto
            43 return
          </CharString>
          <CharString index="77">
            hhcurveto
            -35 callsubr
            return
          </CharString>
          <CharString index="78">
            -59 callsubr
            -54 44 -85 -63 -48 -26 -32 -53 vhcurveto
            -2 50 rlineto
            return
          </CharString>
          <CharString index="79">
            -30 -9 35 callsubr
            vhcurveto
            -20 callsubr
            return
          </CharString>
          <CharString index="80">
            -77 -111 1 -59 hhcurveto
            return
          </CharString>
          <CharString index="81">
            18 -21 24 -21 return
          </CharString>
          <CharString index="82">
            8 -9 callsubr
            return
          </CharString>
          <CharString index="83">
            0 41 -23 -21 return
          </CharString>
          <CharString index="84">
            48 93 -3 48 hhcurveto
            277 145 155 215 215 -150 129 -255 hvcurveto
            -88 -67 -2 -52 hhcurveto
            return
          </CharString>
          <CharString index="85">
            5 -1 -7 3 -11 hhcurveto
            6 callsubr
            5 5 1 5 hhcurveto
            36 20 -15 -49 hvcurveto
            endchar
          </CharString>
          <CharString index="86">
            -7 -19 9 -28 8 -7 rrcurveto
            return
          </CharString>
          <CharString index="87">
            8 -44 rlineto
            return
          </CharString>
          <CharString index="88">
            -15 -15 0 3 -9 vhcurveto
            -2 -2 -1 -3 -4 vvcurveto
            -12 7 -18 5 -4 vhcurveto
            -4 12 14 -1 17 hhcurveto
            145 return
          </CharString>
          <CharString index="89">
            287 -42 callsubr
            return
          </CharString>
          <CharString index="90">
            -1 63 42 -1 47 hhcurveto
            return
          </CharString>
          <CharString index="91">
            2 37 hhcurveto
            return
          </CharString>
          <CharString index="92">
            104 rmoveto
            -99 249 -37 callsubr
            return
          </CharString>
          <CharString index="93">
            -12 50 637 47 return
          </CharString>
          <CharString index="94">
            -36 callsubr
            -234 -87 callsubr
            return
          </CharString>
          <CharString index="95">
            hvcurveto
            -5 -17 -2 -34 -35 vvcurveto
            -39 2 -32 5 -25 vhcurveto
            28 2 8 45 10 33 27 23 rlinecurve
            return
          </CharString>
          <CharString index="96">
            -12 69 -49 -21 443 -20 return
          </CharString>
          <CharString index="97">
            -16 8 -29 11 -1 vhcurveto
            return
          </CharString>
          <CharString index="98">
            vhcurveto
            -19 callgsubr
            return
          </CharString>
          <CharString index="99">
            -150 -163 vhcurveto
            -22 vlineto
            -4 2 -8 -7 -1 vhcurveto
            -15 -5 -28 -4 -23 -3 rrcurveto
            return
          </CharString>
          <CharString index="100">
            rmoveto
            -35 24 -22 35 33 26 29 31 36 -76 callgsubr
          </CharString>
          <CharString index="101">
            -41 callgsubr
            hintmask 10000000
            23 return
          </CharString>
          <CharString index="102">
            hstemhm
            46 91 -76 76 return
          </CharString>
          <CharString index="103">
            -9 44 rlineto
            return
          </CharString>
          <CharString index="104">
            19 27 16 29 -5 7 rrcurveto
            25 -30 -67 17 -54 hhcurveto
            -120 -106 -73 -163 return
          </CharString>
          <CharString index="105">
            7 27 vvcurveto
            return
          </CharString>
          <CharString index="106">
            rmoveto
            -65 -23 66 69 62 23 52 51 57 32 -57 -80 -65 -15 -47 -60 hvcurveto
            return
          </CharString>
          <CharString index="107">
            -26 callsubr
            369 73 8 -20 hstemhm
            return
          </CharString>
          <CharString index="108">
            -1 -2 -2 return
          </CharString>
          <CharString index="109">
            -4 callsubr
            -76 5 -9 -2 callsubr
            505 vlineto
            455 -587 rlineto
            return
          </CharString>
          <CharString index="110">
            300 -12 50 630 41 return
          </CharString>
          <CharString index="111">
            -20 hstemhm
            125 91 return
          </CharString>
          <CharString index="112">
            139 rcurveline
            2 vlineto
            149 138 3 13 0 33 -3 6 rlinecurve
            return
          </CharString>
          <CharString index="113">
            -21 -15 -85 -29 -34 -8 8 -30 rcurveline
            return
          </CharString>
          <CharString index="114">
            630 24 callgsubr
            return
          </CharString>
          <CharString index="115">
            19 29 5 8 7 hvcurveto
            388 vlineto
            -15 -29 -8 -9 -11 hvcurveto
            return
          </CharString>
          <CharString index="116">
            -9 44 -66 callsubr
            return
          </CharString>
          <CharString index="117">
            -27 vvcurveto
            -6 -1 -7 -2 -8 vhcurveto
            -164 -452 rlineto
            endchar
          </CharString>
          <CharString index="118">
            12 3 6 8 31 -3 8 rrcurveto
            return
          </CharString>
          <CharString index="119">
            vlineto
            15 -6 4 -12 vhcurveto
            -47 -21 return
          </CharString>
          <CharString index="120">
            -32 -155 2 -28 hhcurveto
            return
          </CharString>
          <CharString index="121">
            -186 -26 callsubr
            return
          </CharString>
          <CharString index="122">
            -73 -163 -122 return
          </CharString>
          <CharString index="123">
            -1 22 callgsubr
            return
          </CharString>
          <CharString index="124">
            hvcurveto
            200 vlineto
            return
          </CharString>
          <CharString index="125">
            15 callgsubr
            15 23 14 29 5 19 rrcurveto
            return
          </CharString>
          <CharString index="126">
            -5 -5 2 -36 3 -11 149 -138 rcurveline
            -2 vlineto
            return
          </CharString>
          <CharString index="127">
            hhcurveto
            hintmask 01100000
            return
          </CharString>
          <CharString index="128">
            -7 -27 vvcurveto
            return
          </CharString>
          <CharString index="129">
            3 24 1 35 39 vvcurveto
            28 0 33 -7 15 vhcurveto
            return
          </CharString>
          <CharString index="130">
            -1 -24 -13 17 callgsubr
            return
          </CharString>
          <CharString index="131">
            -2 -1 27 hvcurveto
            -13 35 -35 return
          </CharString>
          <CharString index="132">
            -20 hstemhm
            hintmask 01100000
            return
          </CharString>
          <CharString index="133">
            105 523 105 return
          </CharString>
          <CharString index="134">
            rlineto
            -45 -11 -4 -48 -56 -23 4 -58 hhcurveto
            12 return
          </CharString>
          <CharString index="135">
            23 148 2 32 return
          </CharString>
          <CharString index="136">
            hhcurveto
            1 1 7 0 3 1 21 8 35 return
          </CharString>
          <CharString index="137">
            66 22 -32 26 hhcurveto
            51 23 12 33 hvcurveto
            return
          </CharString>
          <CharString index="138">
            -67 -15 32 -31 hhcurveto
            -59 -16 -21 -25 hvcurveto
            return
          </CharString>
          <CharString index="139">
            34 callsubr
            -1 hhcurveto
            return
          </CharString>
          <CharString index="140">
            -2 -7 5 -33 5 -5 return
          </CharString>
          <CharString index="141">
            1 -1 -2 1 return
          </CharString>
          <CharString index="142">
            -1 -72 -8 return
          </CharString>
          <CharString index="143">
            -1 41 -23 -21 23 -21 672 41 return
          </CharString>
          <CharString index="144">
            30 9 1 71 -25 callsubr
            return
          </CharString>
          <CharString index="145">
            1 72 8 return
          </CharString>
          <CharString index="146">
            hstemhm
            40 26 callsubr
            hintmask 10111000
            return
          </CharString>
          <CharString index="147">
            vhcurveto
            54 hlineto
            11 0 -7 -11 hvcurveto
            return
          </CharString>
          <CharString index="148">
            62 283 109 -42 42 hstemhm
            return
          </CharString>
          <CharString index="149">
            rlineto
            34 callsubr
            return
          </CharString>
          <CharString index="150">
            hhcurveto
            hintmask 10100000
            return
          </CharString>
          <CharString index="151">
            -140 rmoveto
            return
          </CharString>
          <CharString index="152">
            125 100 return
          </CharString>
        <CharString name=".notdef">
          -288 endchar
        </CharString>
        <CharString name="A">
          240 -42 callsubr
          hstem
          461 -98 callgsubr
          endchar
        </CharString>
        <CharString name="AE">
          567 4 42 -28 -21 22 -21 23 -21 249 52 31 57 277 44 3 -20 hstemhm
          522 91 hintmask 1000111010000000
          613 -77 callsubr
          -27 callsubr
          -207 hlineto
          hintmask 1000110110000000
          -45 -60 -77 callgsubr
          69 -5 30 -5 -20 -29 rlinecurve
          -313 -491 -40 -61 -29 -27 -62 -5 rlinecurve
          -6 hlineto
          hintmask 0001111010000000
          -3 -46 rlineto
          hintmask 1000111010000000
          46 12 4 47 hhcurveto
          hintmask 0001111010000000
          57 20 -4 59 hhcurveto
          hintmask 1000111010000000
          1 46 -64 4 -15 15 7 27 rlinecurve
          2 6 3 7 4 8 85 136 rcurveline
          258 -169 hlineto
          -3 -30 -8 35 callsubr
          rrcurveto
          hintmask 0100111010000000
          -20 callsubr
          hintmask 0001111010000000
          -41 callsubr
          hintmask 0010111010000000
          -17 callsubr
          hintmask 0001111010000000
          -72 callgsubr
          hintmask 1000111010000000
          -104 callgsubr
          -91 262 rmoveto
          -360 -225 vlineto
          endchar
        </CharString>
        <CharString name="Aacute">
          -18 callsubr
          210 -20 hstem
          338 -82 callsubr
          -7 -651 -107 callgsubr
          endchar
        </CharString>
        <CharString name="Acircumflex">
          -18 callsubr
          243 -20 hstem
          416 -99 callgsubr
          69 -684 -107 callgsubr
          endchar
        </CharString>
        <CharString name="Adieresis">
          270 -42 callsubr
          82 118 hstem
          255 -16 callgsubr
          vstem
          506 -98 callgsubr
          -21 529 -106 callsubr
        </CharString>
        <CharString name="Agrave">
          -18 callsubr
          208 -20 hstem
          277 -68 callsubr
          54 -540 -107 callgsubr
          endchar
        </CharString>
        <CharString name="Aring">
          240 -42 callsubr
          69 46 74 42 hstem
          266 171 vstem
          461 -98 callgsubr
          35 538 rmoveto
          -44 39 -36 45 47 40 42 40 48 -39 32 -48 -50 -34 -41 -41 vhcurveto
          45 2 rmoveto
          21 20 17 23 22 17 -10 -26 -20 -17 -18 -22 -23 -20 15 21 vhcurveto
          endchar
        </CharString>
        <CharString name="Atilde">
          -18 callsubr
          103 71 30 -20 hstem
          485 -98 callgsubr
          294 566 -105 callgsubr
        </CharString>
        <CharString name="B">
          135 -4 45 -20 -21 342 46 279 25 callgsubr
          222 105 -59 59 -59 111 hintmask 1010111000000000
          153 710 rmoveto
          -24 callgsubr
          -550 vlineto
          -28 callsubr
          hintmask 0111011000000000
          -41 callsubr
          hintmask 1011010010000000
          48 93 -4 22 hhcurveto
          179 90 79 132 106 -102 64 -72 8 hvcurveto
          -1 -1 1 1 1 1 1 1 hvcurveto
          hintmask 1011011000000000
          69 29 53 52 85 vvcurveto
          148 -147 11 -69 vhcurveto
          hintmask 1010111000000000
          -87 -27 -4 -51 hhcurveto
          hintmask 1011011000000000
          136 -43 rmoveto
          81 59 -41 -85 -100 -53 -53 -101 hvcurveto
          -58 hlineto
          -7 1 -3 3 7 vvcurveto
          251 vlineto
          44 callgsubr
          vhcurveto
          16 -626 rmoveto
          -45 -53 7 60 hvcurveto
          223 vlineto
          7 3 4 7 vhcurveto
          69 hlineto
          hintmask 1011010100000000
          97 92 -26 -126 -72 -41 -77 -129 hvcurveto
          endchar
        </CharString>
        <CharString name="C">
          276 -12 50 636 48 hstem
          52 105 vstem
          427 674 rmoveto
          -47 callsubr
          -206 153 -147 223 -40 callgsubr
          hvcurveto
          endchar
        </CharString>
        <CharString name="Ccedilla">
          227 -211 249 -50 50 -28 -21 685 48 hstemhm
          37 105 269 58 hintmask 10011100
          330 -69 callgsubr
          hintmask 00111100
          21 24 rlineto
          hintmask 01011100
          3 3 -1 3 hhcurveto
          -40 callgsubr
          -47 callsubr
          -189 125 -136 192 -24 hvcurveto
          -13 -19 -15 -23 -11 vvcurveto
          endchar
        </CharString>
        <CharString name="D">
          317 -3 51 -27 -21 664 47 1 -20 hstemhm
          114 91 453 105 hintmask 10101100
          114 80 rmoveto
          -28 callsubr
          hintmask 01101100
          -41 callsubr
          hintmask 10101100
          -23 callsubr
          hintmask 10011100
          -24 callgsubr
          544 -280 rmoveto
          -191 -101 -110 -188 -164 0 29 52 vhcurveto
          515 vlineto
          hintmask 10101100
          15 14 5 37 vhcurveto
          77 hlineto
          208 117 -114 -201 hvcurveto
          endchar
        </CharString>
        <CharString name="E">
          163 -56 callgsubr
          23 -20 hstemhm
          118 91 hintmask 10011001
          209 -77 callsubr
          hintmask 10010101
          -39 callgsubr
          hintmask 10010011
          -79 callsubr
          hintmask 00111001
          -41 callsubr
          hintmask 01011001
          -17 callsubr
          hintmask 00111001
          -72 callgsubr
          hintmask 10011001
          -104 callgsubr
          endchar
        </CharString>
        <CharString name="Eacute">
          -51 callsubr
          210 4 callsubr
          hintmask 10011011
          299 -82 callsubr
          -237 -251 -104 callsubr
        </CharString>
        <CharString name="Ecircumflex">
          -51 callsubr
          243 4 callsubr
          hintmask 10011011
          377 -99 callgsubr
          -161 -284 -104 callsubr
        </CharString>
        <CharString name="Edieresis">
          -51 callsubr
          82 39 callgsubr
          125 91 -27 -16 callgsubr
          hintmask 1001101101000000
          216 -77 callsubr
          hintmask 1001011101000000
          -80 callsubr
          hintmask 0011101101000000
          -41 callsubr
          hintmask 0101101101000000
          -17 callsubr
          hintmask 0011101101000000
          -72 callgsubr
          hintmask 1001101101000000
          -104 callgsubr
          hintmask 1001101011000000
          -27 431 -106 callsubr
        </CharString>
        <CharString name="Egrave">
          -51 callsubr
          208 4 callsubr
          hintmask 10011011
          234 -68 callsubr
          -172 -140 -104 callsubr
        </CharString>
        <CharString name="Eth">
          320 -3 51 -27 -21 345 46 273 47 1 -20 hstemhm
          117 91 453 105 hintmask 10110110
          117 80 rmoveto
          -28 callsubr
          hintmask 01110110
          -41 callsubr
          hintmask 10110110
          -23 callsubr
          hintmask 10101110
          -24 callgsubr
          -238 -89 vlineto
          -10 callsubr
          70 hlineto
          91 46 rmoveto
          253 vlineto
          hintmask 10110110
          15 14 5 37 vhcurveto
          77 hlineto
          209 116 -112 -203 -192 -100 -109 -189 -164 0 29 52 hvcurveto
          216 205 vlineto
          -21 callgsubr
          endchar
        </CharString>
        <CharString name="Euro">
          100 -12 48 235 46 56 46 228 46 hstem
          364 317 rmoveto
          -200 hlineto
          -1 13 0 13 15 vvcurveto
          15 212 vlineto
          -21 callgsubr
          -1 -198 vlineto
          125 13 54 103 112 hhcurveto
          76 52 -39 -78 27 hvcurveto
          30 -3 rlineto
          3 25 1 24 24 vvcurveto
          29 -1 18 -5 11 vhcurveto
          10 -21 -76 25 -80 hhcurveto
          -139 -114 -101 -173 -29 hvcurveto
          -79 hlineto
          -10 callsubr
          54 hlineto
          -1 -15 0 -16 -15 vvcurveto
          -10 -72 vlineto
          -10 callsubr
          56 hlineto
          -168 19 113 -115 165 hhcurveto
          68 55 21 24 25 hvcurveto
          11 19 25 80 7 vvcurveto
          -33 5 rlineto
          -64 -24 -52 -44 -64 hhcurveto
          -115 -70 95 140 -19 hvcurveto
          206 hlineto
          -21 callgsubr
          endchar
        </CharString>
        <CharString name="F">
          89 -24 callsubr
          22 -21 334 57 277 43 1 -20 23 -20 hstemhm
          118 91 hintmask 10011001
          209 649 rmoveto
          8 10 5 60 3 vhcurveto
          23 9 -89 callgsubr
          hintmask 10010101
          -27 callsubr
          -151 hlineto
          hintmask 10010011
          -45 -37 -82 callgsubr
          69 -5 10 -63 callsubr
          rrcurveto
          hintmask 01011001
          -20 callsubr
          hintmask 10011001
          1 44 60 -29 callgsubr
          hintmask 00111001
          62 32 -2 44 hhcurveto
          hintmask 10011001
          41 callgsubr
          234 vlineto
          6 3 3 7 vhcurveto
          149 -92 callsubr
          -149 hlineto
          -7 -3 3 7 hvcurveto
          endchar
        </CharString>
        <CharString name="G">
          322 -12 50 239 40 358 47 hstem
          50 105 453 80 vstem
          427 675 rmoveto
          37 53 -8 -60 callsubr
          -102 hhcurveto
          -218 -173 -141 -240 -206 138 -147 239 119 91 34 31 55 hvcurveto
          5 1 37 40 hvcurveto
          79 vlineto
          55 7 13 68 -9 callsubr
          -3 -44 -63 -1 -41 hhcurveto
          -45 -57 1 3 -43 hvcurveto
          9 -44 rlineto
          114 13 -13 -55 hvcurveto
          -78 vlineto
          -75 -95 -18 -72 -187 -99 143 192 160 94 142 178 vhcurveto
          endchar
        </CharString>
        <CharString name="H">
          301 -26 callsubr
          333 55 322 -20 23 -20 hstemhm
          111 91 380 91 hintmask 10101110
          202 630 rmoveto
          37 callsubr
          hintmask 10110110
          14 callgsubr
          hintmask 10101110
          -22 callgsubr
          hintmask 01101110
          1 44 38 -29 callgsubr
          hintmask 10101110
          45 29 7 callgsubr
          -12 -2 callsubr
          253 380 -256 vlineto
          -28 -15 0 -68 -8 vhcurveto
          -20 callsubr
          hintmask 01101110
          1 44 40 -29 callgsubr
          hintmask 10101110
          45 30 7 callgsubr
          -13 -2 callsubr
          550 vlineto
          30 12 1 72 -25 callsubr
          hintmask 10110110
          -1 -44 -38 -23 callgsubr
          hintmask 10101110
          -45 -32 -82 callgsubr
          55 -5 12 -9 -25 vvcurveto
          -242 -380 vlineto
          endchar
        </CharString>
        <CharString name="I">
          -133 -24 callsubr
          672 41 3 -20 hstemhm
          131 91 hintmask 10101000
          222 7 callsubr
          hintmask 10011000
          -19 callgsubr
          hintmask 10101000
          33 callgsubr
          hintmask 10011000
          -45 -38 -70 callsubr
          hintmask 10101000
          -1 callgsubr
          hintmask 01101000
          -20 callsubr
          hintmask 10101000
          -35 callgsubr
          hintmask 01101000
          -34 callgsubr
          hintmask 10101000
          -50 callgsubr
          endchar
        </CharString>
        <CharString name="Iacute">
          -14 callgsubr
          190 4 callsubr
          hintmask 10111000
          129 -82 callsubr
          -67 -270 -86 callgsubr
        </CharString>
        <CharString name="Icircumflex">
          -14 callgsubr
          223 4 callsubr
          hintmask 10111000
          206 -99 callgsubr
          10 -303 -86 callgsubr
        </CharString>
        <CharString name="Idieresis">
          -14 callgsubr
          62 39 callgsubr
          24 119 -18 91 -15 118 hintmask 10110100
          216 7 callsubr
          -8 44 rlineto
          33 callgsubr
          -45 -38 2 1 -43 hvcurveto
          -1 callgsubr
          hintmask 01111010
          -20 callsubr
          hintmask 10111010
          -35 callgsubr
          hintmask 01111010
          -34 callgsubr
          hintmask 10110100
          -50 callgsubr
          hintmask 10111010
          -192 750 -106 callsubr
        </CharString>
        <CharString name="Igrave">
          -14 callgsubr
          188 4 callsubr
          hintmask 10111000
          79 -68 callsubr
          -17 -159 -86 callgsubr
        </CharString>
        <CharString name="J">
          -154 -235 -21 925 41 3 -20 hstemhm
          135 91 hintmask 11010000
          226 7 callsubr
          hintmask 10110000
          -19 callgsubr
          hintmask 11010000
          33 callgsubr
          hintmask 10110000
          -45 -38 -70 callsubr
          hintmask 11010000
          9 -44 rlineto
          65 -38 callsubr
          -559 vlineto
          -172 -27 -50 -104 -75 vhcurveto
          -3 -2 1 callsubr
          vvcurveto
          -3 1 -2 2 -2 vhcurveto
          8 -10 rlineto
          -5 4 5 -2 5 hhcurveto
          123 56 78 112 144 vvcurveto
          endchar
        </CharString>
        <CharString name="K">
          216 18 -21 23 -21 22 -21 710 26 callgsubr
          111 91 hintmask 10001100
          528 -3 rmoveto
          hintmask 01001100
          21 53 2 26 hhcurveto
          hintmask 10001100
          31 16 -1 -1 27 hvcurveto
          -13 34 -35 3 -21 11 -27 25 rlinecurve
          -295 319 220 234 rlineto
          32 29 55 16 40 hhcurveto
          6 hlineto
          -10 43 rlineto
          hintmask 10010100
          -45 -11 -4 -48 hhcurveto
          hintmask 10001100
          -56 -23 4 -58 hhcurveto
          12 -43 rlineto
          41 -3 17 -10 -13 vvcurveto
          -7 -5 -5 -9 -11 vhcurveto
          -47 -47 -147 -162 -70 -57 rrcurveto
          274 vlineto
          37 callsubr
          hintmask 10010100
          14 callgsubr
          -22 callgsubr
          hintmask 00101100
          1 44 38 -29 callgsubr
          hintmask 10001100
          45 29 7 callgsubr
          -12 -2 callsubr
          257 vlineto
          21 -4 26 -22 23 -27 rrcurveto
          endchar
        </CharString>
        <CharString name="L">
          128 0 46 -28 -21 22 -21 670 41 3 -20 hstemhm
          118 91 hintmask 10010100
          209 629 rmoveto
          -9 callgsubr
          hintmask 10001100
          -19 callgsubr
          hintmask 10010100
          -1 -44 -39 -23 callgsubr
          hintmask 10001100
          -45 -40 -70 callsubr
          hintmask 01010100
          9 -44 rlineto
          69 -5 10 21 callsubr
          -549 vlineto
          -30 -12 -1 -71 -8 vhcurveto
          -20 callsubr
          hintmask 10010100
          -41 callsubr
          hintmask 00110100
          62 12 -2 48 hhcurveto
          hintmask 10010100
          -72 callgsubr
          -49 callgsubr
          -38 -29 7 60 hvcurveto
          endchar
        </CharString>
        <CharString name="M">
          498 -24 callsubr
          713 -20 23 -20 hstemhm
          116 60 592 91 hintmask 10011100
          945 713 rmoveto
          hintmask 10101100
          -1 -40 -40 -23 callgsubr
          -27 -17 -1 3 -29 hvcurveto
          -20 -111 -231 -16 -32 vhcurveto
          -8 -20 -101 -231 -13 -25 -24 36 -99 189 -19 47 rrcurveto
          hintmask 10011100
          -23 50 -102 212 -9 26 rrcurveto
          hintmask 10101100
          -3 -19 -37 0 -17 hhcurveto
          hintmask 10011100
          -45 -35 -71 callgsubr
          -43 rlineto
          64 -5 13 21 callsubr
          -544 vlineto
          -30 -12 -8 -3 callgsubr
          29 -45 callsubr
          hintmask 10011100
          -4 callsubr
          -75 5 -11 14 27 vvcurveto
          515 vlineto
          hintmask 01011100
          292 -605 rlineto
          hintmask 10011100
          14 3 286 606 rlineto
          -526 vlineto
          -30 -12 -1 -3 callgsubr
          60 -45 callsubr
          hintmask 10011100
          -4 callsubr
          -75 -38 callgsubr
          542 vlineto
          25 20 19 75 5 vhcurveto
          endchar
        </CharString>
        <CharString name="N">
          309 36 callsubr
          3 -20 hstemhm
          116 60 446 60 hintmask 10010110
          682 631 rmoveto
          30 12 1 71 8 vhcurveto
          hintmask 10001110
          -19 callgsubr
          hintmask 10010110
          -1 -44 -28 -23 callgsubr
          hintmask 10001110
          -45 -29 -70 callsubr
          hintmask 10010110
          -50 callsubr
          -459 vlineto
          -32 51 -138 172 -36 44 rrcurveto
          hintmask 10001110
          40 callgsubr
          hintmask 10010110
          -2 -19 -19 -1 -18 hhcurveto
          hintmask 10001110
          -45 -35 -70 callsubr
          hintmask 10010110
          9 -44 rlineto
          64 -5 13 21 callsubr
          -552 vlineto
          -30 -12 -1 -71 -8 vhcurveto
          hintmask 01010110
          -20 callsubr
          hintmask 10010110
          13 callgsubr
          hintmask 01010110
          45 28 -45 callsubr
          hintmask 10010110
          2 callsubr
          hintmask 00110110
          23 callgsubr
          endchar
        </CharString>
        <CharString name="Ntilde">
          347 36 callsubr
          91 71 30 -20 hstemhm
          124 60 446 60 hintmask 10011111
          690 631 rmoveto
          -81 callgsubr
          -459 vlineto
          -32 51 -138 172 -36 44 rrcurveto
          40 callgsubr
          -2 -19 -19 -1 -18 hhcurveto
          -24 callgsubr
          -552 vlineto
          -30 -12 -1 -71 -8 vhcurveto
          hintmask 01011111
          -20 callsubr
          hintmask 10011111
          13 callgsubr
          hintmask 01011111
          45 28 -45 callsubr
          hintmask 10011111
          2 callsubr
          hintmask 00111111
          23 callgsubr
          -114 879 -105 callgsubr
        </CharString>
        <CharString name="O">
          327 -14 callsubr
          hstem
          40 29 callgsubr
          40 -67 callgsubr
          endchar
        </CharString>
        <CharString name="OE">
          631 -12 58 -46 46 -27 -21 334 57 277 43 -43 56 -12 -20 hstemhm
          50 105 431 91 hintmask 1001100110000000
          677 -77 callsubr
          hintmask 1001001110000000
          -39 callgsubr
          hintmask 1001010110000000
          -75 -64 12 -65 hhcurveto
          -55 callsubr
          -43 callgsubr
          hvcurveto
          hintmask 0101100110000000
          60 108 12 35 hhcurveto
          hintmask 0011100110000000
          -17 callsubr
          hintmask 0101100110000000
          -72 callgsubr
          -104 callgsubr
          -237 -361 rmoveto
          -200 -85 171 149 185 107 132 172 40 2 1 -11 70 hvcurveto
          31 -8 9 -9 -48 vvcurveto
          -520 vlineto
          -3 -29 -9 -4 -73 -8 rrcurveto
          -1 -23 -22 0 -16 hhcurveto
          endchar
        </CharString>
        <CharString name="Oacute">
          -14 callsubr
          178 12 callgsubr
          354 -82 callsubr
          -460 -555 -105 callsubr
          endchar
        </CharString>
        <CharString name="Ocircumflex">
          10 callgsubr
          442 -99 callgsubr
          -394 -588 -105 callsubr
          endchar
        </CharString>
        <CharString name="Odieresis">
          -14 callsubr
          49 118 hstem
          48 105 99 -16 callgsubr
          129 -68 callgsubr
          -186 791 -106 callsubr
        </CharString>
        <CharString name="Ograve">
          10 callgsubr
          360 933 -65 callgsubr
          178 -126 -102 callsubr
          -419 -447 -105 callsubr
          endchar
        </CharString>
        <CharString name="Oslash">
          327 -14 callsubr
          20 -20 39 callsubr
          669 742 rmoveto
          -57 -73 rlineto
          35 -56 -68 18 -79 hhcurveto
          -55 callsubr
          -113 40 -91 71 -64 hvcurveto
          -80 -103 12 -10 36 -9 8 8 rlinecurve
          65 84 rlineto
          -39 60 73 -20 84 hhcurveto
          -43 callsubr
          119 -44 96 -76 64 hvcurveto
          66 85 rlineto
          14 -11 -33 3 -6 hhcurveto
          -239 -704 rmoveto
          -81 -61 28 45 -47 hvcurveto
          358 460 rlineto
          47 -64 22 -86 -96 vvcurveto
          -159 -86 -128 -152 vhcurveto
          -285 346 rmoveto
          hintmask 11011000
          159 91 132 152 75 58 -25 -41 44 vhcurveto
          -357 -459 rlineto
          -43 64 -20 83 87 vvcurveto
          endchar
        </CharString>
        <CharString name="Otilde">
          -14 callsubr
          81 71 30 -20 hstem
          48 105 523 -68 callgsubr
          152 839 -105 callgsubr
        </CharString>
        <CharString name="P">
          74 -24 callsubr
          22 -21 321 45 303 25 callgsubr
          251 95 hintmask 10010111
          153 710 rmoveto
          -24 callgsubr
          -550 vlineto
          -3 -30 -8 -1 -72 -8 rrcurveto
          hintmask 01011011
          -20 callsubr
          hintmask 10011011
          1 44 60 -29 callgsubr
          hintmask 00111011
          62 32 -2 44 hhcurveto
          hintmask 10011011
          41 callgsubr
          561 vlineto
          44 callgsubr
          96 73 -40 -99 -105 -73 -59 -113 -19 callsubr
          123 58 146 144 -114 47 -136 -12 -37 -1 -1 -35 hvcurveto
          endchar
        </CharString>
        <CharString name="Q">
          -193 64 -64 231 637 47 39 callsubr
          281 6 rmoveto
          52 -16 49 -14 86 -40 rrcurveto
          -48 103 94 -81 171 hhcurveto
          80 80 22 40 63 hvcurveto
          -20 25 rlineto
          32 callsubr
          -1 -2 0 -1 -1 hvcurveto
          -13 -31 -61 -11 -29 hhcurveto
          -183 -55 92 36 -189 hvcurveto
          13 1 8 0 15 5 rrcurveto
          148 48 106 139 169 vvcurveto
          -73 callsubr
          -171 94 -125 147 -43 vhcurveto
          hintmask 01111000
          149 32 -92 callgsubr
          endchar
        </CharString>
        <CharString name="R">
          212 -24 callsubr
          315 45 310 25 callgsubr
          251 95 hintmask 10101110
          150 710 rmoveto
          -43 -34 -82 callgsubr
          64 -5 13 -53 callsubr
          -30 -9 35 callsubr
          vhcurveto
          hintmask 01110110
          -20 callsubr
          hintmask 10110110
          1 44 43 -29 callgsubr
          hintmask 01110110
          45 44 -45 callsubr
          hintmask 10110110
          -4 callsubr
          -67 5 -20 -2 callsubr
          232 96 vlineto
          5 3 -1 -3 3 hvcurveto
          50 -61 109 -177 51 -70 rrcurveto
          21 53 2 26 hhcurveto
          31 16 24 callsubr
          3 -21 11 -27 25 rlinecurve
          -44 42 -86 130 -64 85 rrcurveto
          84 29 61 61 103 vvcurveto
          137 -114 54 -136 vhcurveto
          hintmask 10101110
          -24 -108 -4 -21 hhcurveto
          57 -60 rmoveto
          hintmask 10110110
          44 callgsubr
          95 74 -45 -100 -104 -56 -61 -129 -11 -32 0 3 -23 vhcurveto
          endchar
        </CharString>
        <CharString name="S">
          63 -14 callsubr
          hstemhm
          59 90 266 90 -64 64 hintmask 11101000
          40 204 rmoveto
          5 -57 16 -99 6 -19 rrcurveto
          -19 51 80 -22 80 hhcurveto
          141 86 94 113 hvcurveto
          230 -356 -6 152 vvcurveto
          68 54 36 69 106 58 -75 -88 5 vhcurveto
          31 -2 rlineto
          22 callsubr
          8 -17 -70 30 -107 hhcurveto
          -105 -111 -52 -128 hvcurveto
          hintmask 11110000
          -225 356 14 -169 vvcurveto
          -69 -49 -55 -95 -84 -72 48 125 -29 vhcurveto
          endchar
        </CharString>
        <CharString name="T">
          196 2 41 -23 -21 666 45 7 -20 hstemhm
          292 91 hintmask 10011000
          642 535 rmoveto
          7 36 1 28 31 vvcurveto
          28 -1 27 -3 32 vhcurveto
          hintmask 10101000
          -6 -17 -39 -1 -22 hhcurveto
          -449 hlineto
          hintmask 10011000
          -21 -42 2 5 -16 -12 callsubr
          hintmask 10101000
          23 25 29 4 63 hhcurveto
          62 -583 hlineto
          -30 -7 -1 -88 -8 vhcurveto
          hintmask 01101000
          -20 callsubr
          hintmask 10101000
          1 44 58 -29 callgsubr
          hintmask 01101000
          45 48 -45 callsubr
          hintmask 10101000
          -4 callsubr
          -81 -38 callgsubr
          583 80 vlineto
          56 26 -7 -20 23 hvcurveto
          27 -23 12 -38 5 -39 rrcurveto
          endchar
        </CharString>
        <CharString name="Thorn">
          81 -24 callsubr
          185 45 283 47 112 41 3 -20 hstemhm
          121 91 254 91 hintmask 10111011
          212 7 callsubr
          hintmask 10110111
          -19 callgsubr
          hintmask 10111011
          33 callgsubr
          hintmask 10110111
          -45 -38 -70 callsubr
          hintmask 10111011
          -1 callgsubr
          hintmask 01111011
          -20 callsubr
          hintmask 10111011
          -35 callgsubr
          hintmask 01111011
          -34 callgsubr
          hintmask 10111011
          -50 callgsubr
          412 vlineto
          2 1 rlineto
          44 callgsubr
          96 74 -40 -89 -92 -75 -62 -112 -19 callsubr
          120 58 136 133 -111 48 -136 -15 -44 -1 -1 -39 hvcurveto
          endchar
        </CharString>
        <CharString name="U">
          268 -12 50 630 41 1 -20 23 -20 hstemhm
          96 91 401 60 hintmask 11001100
          393 -12 -95 callgsubr
          hintmask 10011100
          -19 callgsubr
          hintmask 10101100
          14 callgsubr
          hintmask 10011100
          -70 callgsubr
        </CharString>
        <CharString name="Uacute">
          3 callsubr
          1 -20 210 6 callgsubr
          337 -82 callsubr
          -89 -912 -98 callsubr
        </CharString>
        <CharString name="Ucircumflex">
          3 callsubr
          1 -20 243 6 callgsubr
          427 -99 callgsubr
          -25 -945 -98 callsubr
        </CharString>
        <CharString name="Udieresis">
          3 callsubr
          3 -20 82 39 callgsubr
          105 91 44 -16 callgsubr
          62 60 hintmask 11011111
          402 -12 rmoveto
          191 64 113 156 hvcurveto
          372 vlineto
          30 12 1 71 8 vhcurveto
          hintmask 10111111
          -19 callgsubr
          hintmask 11011111
          -1 -44 -28 -23 callgsubr
          hintmask 10111111
          -45 -29 -70 callsubr
          hintmask 11011111
          -50 callsubr
          -382 vlineto
          -128 -55 -81 -121 -124 -101 52 172 vhcurveto
          370 vlineto
          -9 callgsubr
          -8 44 rlineto
          hintmask 10111111
          14 callgsubr
          -45 -29 -82 callgsubr
          55 -5 9 -9 -25 vvcurveto
          -382 -27 callgsubr
          -162 844 -106 callsubr
        </CharString>
        <CharString name="Ugrave">
          3 callsubr
          1 -20 208 6 callgsubr
          287 -68 callsubr
          -39 -801 -98 callsubr
        </CharString>
        <CharString name="V">
          234 21 -21 710 -20 hstem
          207 614 rmoveto
          -52 callgsubr
          212 571 23 63 28 26 61 7 rlinecurve
          6 hlineto
          -10 43 27 callsubr
          -43 rlineto
          64 -4 20 -18 10 callsubr
        </CharString>
        <CharString name="W">
          572 21 -21 710 -20 hstem
          545 614 rmoveto
          -69 callsubr
          48 -130 -114 -312 -179 469 rlineto
          -52 callgsubr
          146 391 144 -391 rlineto
          48 hlineto
          212 571 23 63 28 23 61 7 rlinecurve
          6 hlineto
          -10 46 27 callsubr
          -46 rlineto
          64 -4 20 -15 10 callsubr
        </CharString>
        <CharString name="X">
          220 17 -21 25 -21 666 40 4 34 callgsubr
          495 92 rmoveto
          6 -10 3 -9 -7 vvcurveto
          -21 -28 -5 -44 vhcurveto
          -4 hlineto
          9 -44 -76 callsubr
          -45 -18 20 56 -43 hvcurveto
          -188 255 188 252 rlineto
          28 21 30 15 48 hhcurveto
          6 hlineto
          hintmask 10010000
          -10 44 rlineto
          hintmask 10100000
          -45 -19 -4 -47 hhcurveto
          hintmask 10010000
          -57 -15 4 -58 43 callsubr
          -46 callgsubr
          -138 -193 -140 207 rlineto
          -39 callsubr
          hintmask 10010000
          9 callsubr
          hintmask 10100000
          36 callgsubr
          170 -247 -196 -260 rlineto
          -29 -19 -33 -14 -47 hhcurveto
          -6 hlineto
          10 -44 rlineto
          hintmask 01100000
          43 21 4 47 43 callsubr
          57 15 -4 58 hhcurveto
          -12 44 rlineto
          -35 4 -34 9 23 vvcurveto
          9 5 10 9 11 vhcurveto
          145 199 rlineto
          endchar
        </CharString>
        <CharString name="Y">
          218 -24 callsubr
          713 34 callgsubr
          204 614 -58 callgsubr
          hintmask 01100000
          -20 callsubr
          hintmask 10100000
          -35 callgsubr
          hintmask 01100000
          -34 callgsubr
          hintmask 10100000
          -62 callsubr
        </CharString>
        <CharString name="Yacute">
          218 -24 callsubr
          713 -20 210 -20 hstemhm
          hintmask 10110000
          332 -82 callsubr
          -282 -286 -58 callgsubr
          hintmask 01110000
          -20 callsubr
          hintmask 10110000
          -35 callgsubr
          hintmask 01110000
          -34 callgsubr
          hintmask 10110000
          -62 callsubr
        </CharString>
        <CharString name="Ydieresis">
          218 -24 callsubr
          669 224 -180 -20 82 39 callgsubr
          344 58 hintmask 10100100
          204 614 rmoveto
          -39 callsubr
          hintmask 10011100
          9 callsubr
          hintmask 10100100
          36 callgsubr
          195 -275 rlineto
          -235 vlineto
          -30 -4 -1 -81 -8 vhcurveto
          hintmask 01100100
          -20 callsubr
          hintmask 10100100
          -35 callgsubr
          hintmask 01100100
          -34 callgsubr
          hintmask 10100100
          -54 callgsubr
          hintmask 10011100
          -11 callgsubr
          hintmask 10100100
          -46 callgsubr
          -144 -228 rlineto
          -151 458 rmoveto
          hintmask 10011100
          -106 callgsubr
        </CharString>
        <CharString name="Z">
          232 0 51 -39 -21 674 45 8 -20 hstemhm
          hintmask 10010000
          453 hmoveto
          59 72 0 -3 77 hvcurveto
          5 23 2 32 39 vvcurveto
          32 -2 39 -3 33 vhcurveto
          -41 -3 rlineto
          -101 -12 -27 -40 -71 hhcurveto
          -299 hlineto
          -1 -1 1 1 hvcurveto
          1 7 16 27 32 47 54 80 111 163 235 323 rrcurveto
          4 -2 9 -3 5 vhcurveto
          hintmask 01100000
          -7 -25 -25 -1 -24 hhcurveto
          -413 hlineto
          -21 -43 2 5 -15 -12 callsubr
          23 25 29 4 63 hhcurveto
          224 hlineto
          5 2 -1 -2 -1 0 22 callgsubr
          hvcurveto
          -459 -650 rlineto
          -4 2 -9 3 -5 vhcurveto
          hintmask 10100000
          7 25 41 2 24 hhcurveto
          endchar
        </CharString>
        <CharString name="a">
          -36 -4 callgsubr
          -17 callgsubr
          hintmask 11011000
          -107 callsubr
          hintmask 11101000
          -102 callgsubr
          endchar
        </CharString>
        <CharString name="aacute">
          -89 callsubr
          -272 485 -94 callsubr
        </CharString>
        <CharString name="acircumflex">
          -25 -4 callgsubr
          265 -103 callgsubr
          -175 657 rmoveto
          -31 -14 -1 -1 -24 hvcurveto
          -96 -179 rlineto
          -101 callgsubr
          109 125 rcurveline
          110 -125 -102 callsubr
          -94 174 -33 callsubr
        </CharString>
        <CharString name="acute">
          -232 536 -21 201 -20 hstem
          40 535 -94 callsubr
        </CharString>
        <CharString name="acute.cap">
          -232 606 -21 129 -20 hstem
          30 605 -84 callsubr
          endchar
        </CharString>
        <CharString name="adieresis">
          -25 -4 callgsubr
          99 118 -5 callsubr
          -64 119 58 114 -83 83 hintmask 11101001
          -107 callsubr
          hintmask 11110010
          -102 callgsubr
          hintmask 11100110
          -356 549 -106 callsubr
        </CharString>
        <CharString name="ae">
          211 -12 62 343 49 hstemhm
          46 101 -86 86 134 89 hintmask 11011000
          370 213 rmoveto
          284 51 4 1 1 4 -2 7 rlinecurve
          -21 110 -72 76 -115 -24 -35 -7 -38 -19 -31 -32 rrcurveto
          39 -20 -38 23 -49 hhcurveto
          -41 -99 -35 -27 -21 hvcurveto
          -7 -8 -9 -24 -23 vvcurveto
          -16 2 -13 19 25 40 12 3 vhcurveto
          -71 callsubr
          1 -56 rlineto
          hintmask 11101000
          -184 -37 -52 -30 -72 -49 callsubr
          71 51 39 39 36 hvcurveto
          -51 36 56 -27 76 hhcurveto
          62 56 27 54 50 -73 callgsubr
          -23 -23 -44 -21 -41 hhcurveto
          -53 -91 11 140 -8 hvcurveto
          2 48 rmoveto
          -3 72 26 65 60 13 56 11 36 -43 12 -77 rrcurveto
          -348 -247 rmoveto
          -35 -36 14 43 -3 hvcurveto
          45 32 24 114 26 vhcurveto
          1 -11 0 -8 3 -11 5 -29 8 -24 11 -21 rrcurveto
          -29 -29 -36 -19 -35 hhcurveto
          endchar
        </CharString>
        <CharString name="agrave">
          -89 callsubr
          -235 666 -87 callgsubr
        </CharString>
        <CharString name="ampersand">
          336 -12 65 -32 -21 407 41 225 48 hstemhm
          45 103 -40 92 0 158 0 74 hintmask 10110101
          285 721 rmoveto
          -94 -88 -72 -104 5 hvcurveto
          3 -74 48 -48 38 -40 rrcurveto
          hintmask 10111001
          -111 -69 -41 -61 -84 vvcurveto
          -94 83 -87 131 83 82 42 80 73 vhcurveto
          138 -112 rlineto
          hintmask 01111001
          1 23 34 1 27 hhcurveto
          31 32 24 callsubr
          7 -16 12 -32 20 rlinecurve
          -164 126 32 54 19 44 37 71 rlinecurve
          24 13 20 17 60 hhcurveto
          -19 callgsubr
          14 callgsubr
          -45 -29 -82 callgsubr
          42 21 -13 -27 -32 -19 -52 -27 -55 hvcurveto
          -207 186 rlineto
          92 63 36 53 60 vvcurveto
          80 -60 51 -87 vhcurveto
          173 -576 rmoveto
          hintmask 10111010
          -41 -30 -68 -51 -69 hhcurveto
          -88 -55 65 84 56 34 63 41 33 hvcurveto
          56 319 rmoveto
          53 26 -38 -47 -47 -26 -54 -56 -47 hvcurveto
          -47 41 -29 49 55 vvcurveto
          47 31 41 48 vhcurveto
          endchar
        </CharString>
        <CharString name="aring">
          -36 -4 callgsubr
          69 52 81 48 -5 callsubr
          -3 182 -35 83 hintmask 11110101
          -107 callsubr
          hintmask 11111001
          -102 callgsubr
          hintmask 11110010
          -295 549 19 callgsubr
          -53 -36 -46 -47 vhcurveto
          48 5 rmoveto
          22 21 18 25 24 17 -11 -27 -24 -17 -19 -24 -25 -21 16 25 vhcurveto
          endchar
        </CharString>
        <CharString name="asciicircum">
          347 310 -21 402 -20 22 34 callgsubr
          291 693 rmoveto
          hintmask 11000000
          -32 3 -2 -26 hhcurveto
          -183 -380 rlineto
          -90 callsubr
          18 -6 9 -3 175 321 rcurveline
          187 -309 9 3 18 6 -91 callgsubr
          -187 362 rlineto
          hintmask 10100000
          5 -2 -2 3 -3 hhcurveto
          endchar
        </CharString>
        <CharString name="asciitilde">
          133 134 62 58 62 hstem
          488 50 vstem
          538 272 rmoveto
          7 0 17 -3 4 vhcurveto
          9 -15 -27 5 -5 hhcurveto
          -48 -8 -70 -41 vhcurveto
          -65 -77 120 -96 hhcurveto
          -92 -26 -92 -64 -9 0 -5 1 -3 hvcurveto
          12 -3 26 2 9 3 rrcurveto
          43 3 66 64 vhcurveto
          61 85 -120 88 hhcurveto
          72 34 83 55 hvcurveto
          endchar
        </CharString>
        <CharString name="asterisk">
          -124 373 -21 hstem
          92 618 rmoveto
          -12 -5 -31 -2 -14 vvcurveto
          90 -73 -51 -15 -43 -11 -9 -3 rlinecurve
          -3 -10 -16 -28 12 -9 130 39 rcurveline
          -23 -107 rlineto
          -11 11 11 -17 17 hhcurveto
          8 10 53 13 63 vhcurveto
          -37 45 40 -31 3 hhcurveto
          7 37 6 8 hvcurveto
          -10 8 -46 36 -49 40 51 15 40 12 3 3 3 8 19 22 -9 14 -12 -5 -51 -15 -57 -16 rrcurveto
          13 67 11 60 2 vvcurveto
          -5 8 -28 -16 -8 -5 -1 -13 -10 -46 -11 -51 rrcurveto
          endchar
        </CharString>
        <CharString name="at">
          357 -188 248 -72 72 -47 -21 368 42 131 47 hstemhm
          67 92 82 83 390 87 hintmask 01011111
          487 155 rmoveto
          -14 -59 -13 -41 -2 -27 rrcurveto
          -28 -2 9 -12 22 hhcurveto
          123 191 181 183 121 -85 107 -170 -260 -219 -231 -229 hvcurveto
          hintmask 10011111
          -219 175 -89 105 31 19 7 15 3 0 21 callgsubr
          vhcurveto
          -141 -96 111 168 299 238 116 121 117 79 -59 -132 -180 -116 -102 -45 -6 -4 4 4 5 1 6 1 5 hvcurveto
          62 340 rlineto
          -23 -23 -6 -7 -15 hvcurveto
          -12 -39 rlineto
          11 -12 -18 19 -32 hhcurveto
          -94 -67 -88 -70 -32 hvcurveto
          -17 -37 -21 -75 -55 vvcurveto
          hintmask 00111111
          -53 31 -32 48 66 77 120 43 24 vhcurveto
          25 136 rmoveto
          -5 -37 -14 -49 -35 -46 rrcurveto
          -22 -17 -55 -72 -31 hhcurveto
          -23 -8 21 33 108 68 133 76 29 16 -24 -27 hvcurveto
          -8 vlineto
          endchar
        </CharString>
        <CharString name="atilde">
          -25 -4 callgsubr
          116 71 30 -20 -17 callgsubr
          hintmask 11110110
          -107 callsubr
          hintmask 11111010
          -102 callgsubr
          -37 582 -105 callgsubr
        </CharString>
        <CharString name="b">
          44 -12 44 355 55 315 -20 hstem
          81 79 241 91 vstem
          166 347 rmoveto
          19 23 30 21 49 hhcurveto
          77 56 -68 -119 -84 -29 -84 -92 -69 -45 33 60 hvcurveto
          -85 44 rmoveto
          -72 1 -85 -3 -13 vhcurveto
          -1 -5 2 -2 3 -1 12 -3 rcurveline
          5 -1 4 1 4 3 36 27 rcurveline
          -15 27 53 -15 51 hhcurveto
          140 77 9 callgsubr
          -1 371 rlineto
          5 -6 3 -12 vhcurveto
          6 callsubr
          45 4 26 -12 -55 vvcurveto
          endchar
        </CharString>
        <CharString name="backslash">
          -113 273 -46 rmoveto
          4 -2 45 -11 13 11 -299 779 rcurveline
          -7 10 -43 4 -16 -5 rrcurveto
          endchar
        </CharString>
        <CharString name="bar">
          -232 -245 -21 1026 -20 hstem
          100 54 vstem
          100 -266 rmoveto
          19 28 5 8 7 hvcurveto
          1013 vlineto
          -15 -28 -8 -9 -11 hvcurveto
          endchar
        </CharString>
        <CharString name="braceleft">
          -58 -207 -21 hstemhm
          149 84 -53 91 hintmask 10100000
          63 254 rmoveto
          114 -29 3 -51 -58 vvcurveto
          hintmask 11000000
          -32 -31 -81 -51 vvcurveto
          -82 72 -82 135 -16 vhcurveto
          7 3 0 2 3 8 2 13 rcurveline
          1 7 -2 3 -6 1 -100 10 -32 63 5 60 rrcurveto
          hintmask 10100000
          3 48 34 56 69 vvcurveto
          62 -42 68 -99 27 vhcurveto
          -1 1 -3 1 1 3 rrcurveto
          113 11 31 88 46 vvcurveto
          hintmask 11000000
          61 -38 73 49 vvcurveto
          81 67 26 68 11 vhcurveto
          6 1 2 3 -1 7 -2 13 rcurveline
          -3 8 0 2 -7 3 rrcurveto
          -104 3 -111 -46 -115 vvcurveto
          hintmask 10100000
          -23 32 -143 -43 vvcurveto
          -31 -6 -64 -114 -8 vhcurveto
          -3 1 callsubr
          -2 vvcurveto
          -7 -1 -14 3 -4 vhcurveto
          1 -3 2 -2 3 -1 rrcurveto
          endchar
        </CharString>
        <CharString name="braceright">
          -58 -207 -21 hstemhm
          160 91 -53 53 -53 85 hintmask 10100000
          368 254 rmoveto
          3 1 2 2 1 3 rrcurveto
          3 4 -1 14 7 vvcurveto
          2 -2 2 -3 1 vhcurveto
          -114 8 -6 64 31 vvcurveto
          hintmask 10010000
          43 32 143 23 vvcurveto
          115 -111 46 -104 -3 vhcurveto
          -7 -3 0 -2 -3 -8 -2 -13 rcurveline
          -1 -7 2 -3 6 -1 rrcurveto
          68 -11 67 -26 -81 vvcurveto
          hintmask 11000000
          -49 -38 -73 -61 vvcurveto
          -46 31 -88 113 -11 vhcurveto
          1 -3 -3 22 callgsubr
          rrcurveto
          -99 -27 -42 -68 -62 vvcurveto
          hintmask 10010000
          -69 35 -56 3 -48 vhcurveto
          3 -61 -30 -61 -101 -11 -6 -1 -2 -3 1 -7 2 -13 rcurveline
          3 -8 0 -2 7 -3 rrcurveto
          135 16 73 82 82 vvcurveto
          hintmask 11000000
          51 -32 81 32 vvcurveto
          58 3 51 114 29 vhcurveto
          endchar
        </CharString>
        <CharString name="bracketleft">
          27 callgsubr
          100 90 hintmask 10110000
          369 -289 rmoveto
          -153 5 -26 5 12 vvcurveto
          1022 vlineto
          16 31 -1 149 8 vhcurveto
          -8 48 rlineto
          -5 -118 -54 -1 -81 hhcurveto
          -7 -2 -6 -4 hvcurveto
          -1131 vlineto
          -8 6 -2 4 vhcurveto
          hintmask 01110000
          148 45 -3 -3 59 hvcurveto
          endchar
        </CharString>
        <CharString name="bracketright">
          27 callgsubr
          146 90 hintmask 01110000
          -26 -337 rmoveto
          hintmask 10110000
          3 60 43 3 149 hhcurveto
          4 6 2 8 hvcurveto
          1131 vlineto
          4 -2 6 -7 -81 -54 1 5 -118 vhcurveto
          -8 -48 rlineto
          149 -8 31 1 -16 vvcurveto
          -1022 vlineto
          -12 -26 -5 -153 -5 vhcurveto
          endchar
        </CharString>
        <CharString name="brokenbar">
          -232 -205 -21 949 -20 hstem
          100 55 vstem
          100 322 rmoveto
          8 callsubr
          -932 vmoveto
          8 callsubr
          endchar
        </CharString>
        <CharString name="bullet">
          34 124 -21 254 -20 hstem
          121 228 rmoveto
          -75 50 -50 75 69 57 67 64 80 -52 43 -76 -68 -55 -61 -68 vhcurveto
          endchar
        </CharString>
        <CharString name="c">
          -44 -12 41 callsubr
          38 91 hintmask 10110000
          237 400 rmoveto
          hintmask 11010000
          83 35 -67 20 hhcurveto
          15 callgsubr
          hintmask 10110000
          -3 callsubr
          -122 79 -96 133 61 60 25 55 51 hvcurveto
          -28 callgsubr
          endchar
        </CharString>
        <CharString name="ccedilla">
          -27 -190 -21 199 41 callsubr
          50 91 166 58 hintmask 11011100
          226 -69 callgsubr
          22 24 -2 2 48 9 47 25 40 43 rlinecurve
          -28 callgsubr
          hintmask 11101100
          83 35 -67 20 hhcurveto
          15 callgsubr
          hintmask 11011100
          -3 callsubr
          -118 72 -92 126 -8 hvcurveto
          -13 -19 -13 -21 -9 vvcurveto
          endchar
        </CharString>
        <CharString name="cedilla">
          347 -190 -21 229 -20 hstem
          406 58 vstem
          325 -69 callgsubr
          22 24 -31 29 rlineto
          -5 -8 -43 -54 -17 vvcurveto
          endchar
        </CharString>
        <CharString name="cent">
          -44 -45 -21 113 62 350 42 93 -20 hstem
          38 91 vstem
          282 589 rmoveto
          -11 -88 rlineto
          -120 -113 -76 -160 -112 63 -87 112 -16 hvcurveto
          -14 -115 rlineto
          -1 2 4 0 5 hhcurveto
          15 13 3 8 3 hvcurveto
          12 102 60 1 70 26 49 53 rlinecurve
          -32 callgsubr
          -47 -18 -44 hhcurveto
          -11 -7 -1 3 -9 hvcurveto
          42 338 rlineto
          -16 46 20 -31 16 hhcurveto
          24 17 58 4 19 -89 13 -28 3 hvcurveto
          12 92 rlineto
          2 -6 -6 1 -5 hhcurveto
          -11 -8 -2 -3 -3 hvcurveto
          -38 -130 rmoveto
          7 7 0 -1 7 hvcurveto
          -43 -336 rlineto
          -64 29 -29 73 76 vvcurveto
          106 58 53 57 vhcurveto
          endchar
        </CharString>
        <CharString name="circumflex">
          45 527 -21 201 -20 hstem
          300 707 rmoveto
          -31 -14 -1 -1 -24 hvcurveto
          -96 -179 rlineto
          -101 callgsubr
          109 125 rcurveline
          110 -125 -102 callsubr
          -94 174 -33 callsubr
        </CharString>
        <CharString name="circumflex.cap">
          45 567 -21 161 -20 hstem
          300 707 rmoveto
          -31 -14 -1 -1 -24 hvcurveto
          -106 -139 rlineto
          -101 callgsubr
          119 88 rcurveline
          120 -88 -102 callsubr
          -104 134 -33 callsubr
        </CharString>
        <CharString name="colon">
          -243 -8 124 146 124 hstem
          76 125 vstem
          76 52 rmoveto
          -32 callsubr
          270 vmoveto
          -32 callsubr
          endchar
        </CharString>
        <CharString name="comma">
          -244 110 -20 hstem
          85 69 vstem
          25 -51 callgsubr
          endchar
        </CharString>
        <CharString name="copyright">
          255 80 44 -44 164 316 162 -42 42 hstemhm
          50 218 -85 85 hintmask 01100100
          387 560 rmoveto
          23 26 -8 -11 17 hvcurveto
          27 -16 6 -18 -28 vvcurveto
          25 -3 rlineto
          3 17 0 20 16 vvcurveto
          20 0 15 -3 8 vhcurveto
          4 -36 -36 14 -56 hhcurveto
          -115 -85 -72 -124 -107 78 -75 116 55 41 13 16 28 hvcurveto
          8 17 68 5 hvcurveto
          -15 2 rlineto
          -47 -20 -31 -25 -63 hhcurveto
          -79 -50 78 88 73 44 77 75 hvcurveto
          -16 162 rmoveto
          hintmask 10011000
          -179 -142 -142 -178 -187 139 -135 182 177 143 140 182 178 -134 142 -186 hvcurveto
          -42 vmoveto
          155 125 -118 -160 -160 -112 -118 -168 -156 -125 120 158 160 125 118 156 hvcurveto
          endchar
        </CharString>
        <CharString name="currency">
          30 132 51 289 49 87 -20 hstem
          74 66 239 66 vstem
          28 114 rmoveto
          8 -19 30 -14 11 3 73 81 rcurveline
          -21 29 38 -12 43 hhcurveto
          41 35 12 23 31 hvcurveto
          19 -27 34 -41 11 -14 rrcurveto
          20 7 20 25 11 vvcurveto
          -66 78 rlineto
          25 33 15 44 47 vvcurveto
          56 -19 46 -31 32 vhcurveto
          89 97 rlineto
          11 -13 -28 14 -16 hhcurveto
          -10 -12 -41 -47 -24 -29 rrcurveto
          15 -27 -32 8 -36 hhcurveto
          -29 -27 -7 -11 -23 hvcurveto
          -27 35 -49 57 -8 13 -11 -9 -19 -26 -3 -16 72 -86 rcurveline
          -37 -36 -22 -54 -60 vvcurveto
          -47 13 -41 23 -31 vhcurveto
          142 -19 rmoveto
          -67 -45 56 73 100 62 60 65 61 51 -54 -77 -86 -56 -72 -71 hvcurveto
          endchar
        </CharString>
        <CharString name="d">
          56 -12 56 356 42 0 237 81 -20 hstemhm
          38 91 236 85 hintmask 10111100
          450 115 rmoveto
          626 12 callsubr
          -58 -18 -51 -15 9 -30 rcurveline
          2 9 8 1 9 hhcurveto
          32 22 -15 -44 hvcurveto
          -201 vlineto
          13 -27 -31 10 28 callgsubr
          79 -79 107 67 58 39 29 21 hvcurveto
          3 -60 rlineto
          -5 6 -3 7 vhcurveto
          24 7 24 7 25 5 71 12 rcurveline
          -7 32 -17 -1 rlineto
          -12 hlineto
          -37 -7 36 29 hvcurveto
          -85 -30 rmoveto
          -4 -3 rlineto
          -17 -23 -24 -21 -51 hhcurveto
          -77 -57 67 119 hvcurveto
          hintmask 11011100
          87 30 83 92 68 46 -36 -59 vhcurveto
          endchar
        </CharString>
        <CharString name="dagger">
          -9 -120 -21 555 42 callgsubr
          222 -70 70 -34 69 -69 221 hintmask 10111000
          237 -141 rmoveto
          17 12 4 8 6 hvcurveto
          135 vlineto
          120 18 74 21 69 vhcurveto
          37 callgsubr
          hintmask 11010001
          30 callsubr
          hintmask 10111000
          31 -24 15 -49 vhcurveto
          hintmask 11010010
          -33 -20 -32 -62 hhcurveto
          30 callgsubr
          hintmask 11010100
          -48 -5 -42 -41 hvcurveto
          hintmask 11010010
          -32 36 -32 -102 vvcurveto
          hintmask 10111000
          31 callsubr
          hintmask 11011000
          -27 15 -18 56 vhcurveto
          hintmask 10110010
          32 18 32 67 hhcurveto
          -99 -4 -29 -33 -41 vhcurveto
          -1 -8 rlineto
          18 -69 19 -76 -118 vvcurveto
          endchar
        </CharString>
        <CharString name="daggerdbl">
          -9 -155 -21 217 59 -27 59 282 42 callgsubr
          221 -69 69 -33 69 -69 221 hintmask 1100111000000000
          311 269 rmoveto
          37 callgsubr
          hintmask 1101010001000000
          30 callsubr
          hintmask 1100111000000000
          31 -24 15 -49 vhcurveto
          hintmask 1101010100000000
          -33 -20 -32 -62 hhcurveto
          hintmask 1101010010000000
          30 callgsubr
          hintmask 1101010100000000
          -48 -5 -42 -41 hvcurveto
          hintmask 1101010010000000
          -32 36 -32 -102 vvcurveto
          hintmask 1100111000000000
          31 callsubr
          hintmask 1101011000000000
          -27 15 -18 56 vhcurveto
          hintmask 1100110010000000
          32 18 32 67 hhcurveto
          -99 -6 -30 -32 -40 vhcurveto
          -1 -8 rlineto
          33 -41 6 -29 -99 vvcurveto
          hintmask 1011011000000000
          -67 -18 32 -32 hhcurveto
          -56 -15 -18 -27 hvcurveto
          hintmask 1101011000000000
          -27 16 -19 59 vhcurveto
          hintmask 1011010010000000
          31 15 32 67 hhcurveto
          hintmask 1101010100000000
          -102 -36 -32 -32 vvcurveto
          -41 5 -42 48 vhcurveto
          hintmask 1011010010000000
          47 5 47 36 hvcurveto
          hintmask 1011011000000000
          32 -36 31 103 vvcurveto
          hintmask 1101010001000000
          62 20 -32 33 hhcurveto
          49 24 15 31 hvcurveto
          hintmask 1011011000000000
          33 -23 12 -51 vhcurveto
          hintmask 1101011000000000
          -26 -22 -32 -66 hhcurveto
          99 7 29 33 41 vhcurveto
          endchar
        </CharString>
        <CharString name="degree">
          -192 457 48 140 48 hstem
          35 224 vstem
          151 505 rmoveto
          -40 -31 30 49 43 28 18 35 35 35 -22 -57 -40 -25 -21 -37 hvcurveto
          -116 66 rmoveto
          -68 48 -46 64 64 48 53 67 69 -48 47 -65 -67 -44 -54 -68 vhcurveto
          endchar
        </CharString>
        <CharString name="dieresis">
          4 548 118 hstem
          95 -16 callgsubr
          vstem
          95 606 -106 callsubr
        </CharString>
        <CharString name="divide">
          82 57 118 68 50 62 118 hstem
          220 119 vstem
          518 241 rmoveto
          15 -6 28 -11 11 vhcurveto
          -20 -161 -2 -40 -53 -166 2 -22 hhcurveto
          -21 callsubr
          18 161 2 52 61 167 -2 10 hhcurveto
          -298 172 rmoveto
          -99 callsubr
          -298 vmoveto
          -99 callsubr
          endchar
        </CharString>
        <CharString name="dollar">
          63 -83 -21 92 50 606 47 120 -20 hstemhm
          59 90 109 54 -54 218 -61 90 hintmask 11111101
          258 -104 rmoveto
          19 28 5 8 7 hvcurveto
          81 vlineto
          129 11 64 90 104 vvcurveto
          120 -100 47 -93 37 vhcurveto
          242 vlineto
          80 -17 45 -66 4 -76 31 -2 rcurveline
          hintmask 11111010
          22 callsubr
          hintmask 11111101
          -15 8 -57 23 -85 5 rrcurveto
          121 vlineto
          -15 -28 -8 -9 -11 hvcurveto
          -103 vlineto
          -104 -5 -95 -57 -122 vvcurveto
          -118 103 -42 96 -40 vhcurveto
          -269 vlineto
          -84 1 -59 48 -29 124 -46 -7 rcurveline
          5 -57 16 -99 6 -19 47 -19 63 -19 81 -3 rrcurveto
          -109 548 rmoveto
          64 42 39 67 5 vhcurveto
          -223 vlineto
          -61 27 -48 29 59 vvcurveto
          266 -374 rmoveto
          -57 -34 -47 -69 -15 vhcurveto
          240 vlineto
          59 -28 44 -33 -60 vvcurveto
          endchar
        </CharString>
        <CharString name="dotlessi">
          -193 -26 callsubr
          450 -20 hstemhm
          108 85 hintmask 10110000
          193 -96 callgsubr
          endchar
        </CharString>
        <CharString name="e">
          -27 -12 -20 callgsubr
          hstem
          38 91 195 100 vstem
          419 -103 callsubr
          endchar
        </CharString>
        <CharString name="eacute">
          -75 callsubr
          -136 245 -94 callsubr
        </CharString>
        <CharString name="ecircumflex">
          -15 -12 -20 callgsubr
          265 -90 callgsubr
          -50 417 rmoveto
          -31 -14 -1 -1 -24 hvcurveto
          -96 -179 rlineto
          -101 callgsubr
          109 125 rcurveline
          110 -125 -102 callsubr
          -94 174 -33 callsubr
        </CharString>
        <CharString name="edieresis">
          -15 -12 -20 callgsubr
          100 39 callgsubr
          50 91 -35 -16 callgsubr
          -65 100 hintmask 11111001
          -100 callsubr
          hintmask 11110110
          -230 310 -106 callsubr
        </CharString>
        <CharString name="egrave">
          -75 callsubr
          -108 426 -87 callgsubr
        </CharString>
        <CharString name="eight">
          22 -12 50 609 45 hstemhm
          41 85 -71 85 216 85 -58 85 hintmask 11100100
          41 168 rmoveto
          -116 101 -64 112 127 87 82 99 106 -66 49 -75 37 vhcurveto
          hintmask 11011000
          55 40 59 64 80 vvcurveto
          70 -61 77 -123 -122 -80 -81 -96 -75 51 -49 63 -37 vhcurveto
          hintmask 11100100
          -61 -37 -67 -54 -95 vvcurveto
          342 -7 rmoveto
          -76 -55 -47 -63 -92 -47 61 80 65 37 58 37 33 vhcurveto
          88 -48 95 -42 -84 vvcurveto
          hintmask 11011000
          -243 376 rmoveto
          48 35 62 69 73 39 -52 -63 -57 -26 -53 -39 -44 vhcurveto
          -78 38 -73 34 87 vvcurveto
          endchar
        </CharString>
        <CharString name="ellipsis">
          184 -5 32 callgsubr
          105 115 105 115 cntrmask 01110000
          57 51 rmoveto
          -63 callgsubr
          220 hmoveto
          -63 callgsubr
          220 hmoveto
          -2 callgsubr
        </CharString>
        <CharString name="endash">
          14 185 56 -37 -21 60 25 callsubr
          -1 243 -6 callsubr
          187 2 33 20 callsubr
          34 204 -2 21 -30 callsubr
          hintmask 10000000
          -23 -176 -2 -39 20 callsubr
          -32 -195 2 -28 hhcurveto
          endchar
        </CharString>
        <CharString name="equal">
          41 145 56 -37 -21 150 56 2 25 callsubr
          47 203 -41 callgsubr
          hintmask 10100000
          28 callsubr
          20 callsubr
          -31 callgsubr
          hintmask 10010000
          -25 -131 -2 -41 13 callsubr
          148 vmoveto
          -48 callsubr
          hintmask 10100000
          28 callsubr
          34 163 -2 21 hhcurveto
          hintmask 10010000
          -35 callsubr
          hintmask 10100000
          -25 -131 -23 callgsubr
          hintmask 10010000
          13 callsubr
          endchar
        </CharString>
        <CharString name="eth">
          32 -13 callgsubr
          281 -20 hstem
          38 91 266 85 vstem
          175 697 rmoveto
          31 -27 33 -35 32 -43 -37 -24 -63 -38 -13 -8 rrcurveto
          -16 4 19 -18 8 hhcurveto
          11 8 59 38 36 23 25 -40 21 -44 15 -47 rrcurveto
          11 -28 -31 5 -35 hhcurveto
          -34 callsubr
          -26 callgsubr
          124 90 99 137 141 -60 120 -75 104 hvcurveto
          40 24 57 43 11 6 -4 13 -13 15 -12 3 -108 -72 rcurveline
          -36 39 -41 34 -47 29 -7 -3 -18 -15 8 -8 rrcurveto
          99 -664 -57 callgsubr
          83 58 -73 -117 -95 -46 -82 -75 hvcurveto
          endchar
        </CharString>
        <CharString name="exclam">
          -167 -10 101 597 -20 hstem
          108 102 vstem
          208 677 rmoveto
          7 -3 -4 4 -13 hhcurveto
          -16 -3 -64 -22 -11 -5 41 -445 rcurveline
          -5 1 -3 2 vhcurveto
          30 2 rlineto
          3 4 4 3 hvcurveto
          31 417 rlineto
          5 1 11 11 vvcurveto
          7 1 7 -3 5 vhcurveto
          -100 -637 -6 callgsubr
        </CharString>
        <CharString name="exclamdown">
          -167 -223 -21 597 101 hstem
          108 102 vstem
          110 -233 rmoveto
          -7 3 4 -4 13 hhcurveto
          16 3 64 22 11 5 -41 445 rcurveline
          5 -1 3 -2 vhcurveto
          -30 -2 rlineto
          -3 -4 -4 -3 hvcurveto
          -31 -417 rlineto
          -5 -1 -11 -11 vvcurveto
          -7 -1 -7 3 -5 vhcurveto
          100 637 -7 callgsubr
        </CharString>
        <CharString name="f">
          -90 19 -21 371 48 279 64 hstem
          111 86 vstem
          112 72 rmoveto
          -5 callgsubr
          42 -16 callsubr
          39 30 -78 callsubr
          -51 4 -22 7 23 vvcurveto
          279 vlineto
          11 -1 7 11 vhcurveto
          105 hlineto
          4 12 4 27 -4 11 -107 -3 rcurveline
          -11 -2 6 7 hvcurveto
          49 vlineto
          171 22 47 70 47 46 -38 -10 21 vhcurveto
          18 callsubr
          13 -50 24 -42 -171 -72 -8 callsubr
          -7 3 -16 4 -8 40 callsubr
          endchar
        </CharString>
        <CharString name="five">
          -46 21 -21 602 77 63 -20 hstem
          299 85 vstem
          40 404 rmoveto
          134 125 -57 -103 -126 -117 -66 -117 -19 hvcurveto
          -3 -2 -7 -7 -11 3 -8 4 hvcurveto
          144 3 173 104 168 vvcurveto
          94 -72 92 -205 19 vhcurveto
          34 122 rlineto
          152 45 -1 -8 32 hvcurveto
          9 29 6 14 7 29 rrcurveto
          5 29 3 11 23 vvcurveto
          -25 14 rlineto
          -56 -21 -20 -7 -53 hhcurveto
          -84 hlineto
          -27 -24 2 7 -27 hvcurveto
          -6 -6 -4 -8 -2 -9 rrcurveto
          endchar
        </CharString>
        <CharString name="florin">
          -90 -142 67 444 48 244 62 hstem
          58 82 rmoveto
          -131 -21 -15 -26 -57 hhcurveto
          -33 -40 21 5 -14 hvcurveto
          -12 -25 -60 -11 -11 36 -11 31 156 72 177 120 19 hvcurveto
          32 196 rlineto
          11 1 0 7 11 hhcurveto
          105 hlineto
          7 11 5 21 13 vvcurveto
          5 vlineto
          -107 -3 rlineto
          -7 -4 3 6 hvcurveto
          4 vlineto
          8 49 rlineto
          157 27 26 26 59 hhcurveto
          33 45 -25 -8 13 hvcurveto
          12 31 56 11 11 -36 17 -29 -128 -116 -112 -164 -27 hvcurveto
          -4 -22 rlineto
          -27 -76 13 -21 vvcurveto
          -8 1 -7 2 -6 vhcurveto
          54 hlineto
          6 3 -4 -7 hvcurveto
          -7 vlineto
          endchar
        </CharString>
        <CharString name="four">
          91 9 -21 248 68 389 -20 hstemhm
          333 82 -82 214 hintmask 11101000
          419 236 rmoveto
          61 15 -1 -10 31 hvcurveto
          18 31 3 7 37 vvcurveto
          4 -2 10 -3 5 vhcurveto
          -13 -45 18 -2 -58 hhcurveto
          hintmask 11110000
          -42 268 hlineto
          40 6 49 8 13 vhcurveto
          1 3 rlineto
          5 -4 7 -3 4 vhcurveto
          -20 -1 -23 -2 -7 -11 -345 -416 rcurveline
          -2 -3 -1 -3 -1 vvcurveto
          -12 12 -8 9 vhcurveto
          283 -235 hlineto
          19 -11 32 1 35 -3 rrcurveto
          248 vlineto
          -82 68 rmoveto
          -207 hlineto
          207 254 rlineto
          endchar
        </CharString>
        <CharString name="g">
          -8 -268 50 196 195 -44 44 227 42 hstemhm
          12 80 -47 76 -64 80 178 76 -39 85 hintmask 1101010100000000
          443 361 rmoveto
          11 14 4 44 6 vvcurveto
          -1 -19 -31 -1 -21 hhcurveto
          -20 -20 -3 12 -59 hvcurveto
          7 -23 -22 3 -27 hhcurveto
          -92 -79 -68 -97 -68 47 -46 47 -21 hvcurveto
          -35 -24 -16 -10 -23 -23 rrcurveto
          hintmask 1101001100000000
          -5 -5 -3 -8 -10 vvcurveto
          -27 33 -32 32 -13 vhcurveto
          -21 -16 -47 -32 -24 -24 rrcurveto
          hintmask 1101100010000000
          -11 -11 -7 -24 -15 vvcurveto
          -101 101 -35 85 137 102 93 99 64 -25 26 -43 19 vhcurveto
          -40 16 -99 -1 -52 14 rrcurveto
          hintmask 1011001100000000
          -24 7 -17 12 17 vvcurveto
          11 10 9 11 7 vhcurveto
          9 5 6 2 13 -1 rrcurveto
          -1 9 16 -1 9 hhcurveto
          91 80 61 102 32 -9 28 -15 23 hvcurveto
          hintmask 1101100010000000
          -15 -487 rmoveto
          -61 -55 -45 -69 -84 -52 49 59 48 31 17 21 13 vhcurveto
          7 11 17 3 11 hhcurveto
          39 54 -3 -19 36 hvcurveto
          27 -14 13 -23 -31 vvcurveto
          -126 285 rmoveto
          hintmask 1101010100000000
          -59 -46 48 79 63 33 37 61 64 36 -50 -75 -63 -28 -39 -61 hvcurveto
          endchar
        </CharString>
        <CharString name="germandbls">
          115 -12 50 -18 -21 711 50 hstemhm
          111 86 110 95 38 85 -39 77 hintmask 10111010
          414 32 rmoveto
          -53 -28 40 16 -16 hvcurveto
          -4 2 -3 0 -3 -3 -21 -16 1 -48 5 -10 rrcurveto
          -13 22 47 -12 35 hhcurveto
          103 64 88 76 hvcurveto
          144 -161 20 81 vvcurveto
          hintmask 10111100
          57 123 58 97 vvcurveto
          101 -89 50 -75 -156 -94 -8 callsubr
          -8 3 -16 4 -7 40 callsubr
          -279 vlineto
          -5 callgsubr
          42 -16 callsubr
          hintmask 01111100
          40 8 -2 40 hhcurveto
          hintmask 10111100
          -9 39 rlineto
          -51 3 -2 9 22 vvcurveto
          406 vlineto
          187 61 45 69 60 53 -42 -88 vhcurveto
          -105 -133 -42 -79 vvcurveto
          hintmask 10111010
          -96 179 -56 -93 vvcurveto
          -39 -23 -38 -49 vhcurveto
          endchar
        </CharString>
        <CharString name="grave">
          -220 536 -21 201 -20 hstem
          134 716 -87 callgsubr
        </CharString>
        <CharString name="grave.cap">
          347 606 -21 129 -20 hstem
          87 714 -74 callsubr
          endchar
        </CharString>
        <CharString name="greater">
          61 41 -21 504 -20 hstem
          67 524 rmoveto
          -6 -6 1 -51 5 -15 311 -177 rcurveline
          -4 vlineto
          -311 -178 -2 -12 -4 -50 6 -11 rlinecurve
          389 213 8 8 7 52 -2 10 rlinecurve
          endchar
        </CharString>
        <CharString name="guillemotleft">
          23 61 -21 383 -20 hstem
          21 251 rmoveto
          33 callsubr
          49 -12 181 -145 9 -9 3 8 -1 37 -2 7 -149 5 callsubr
          -15 -11 -177 -141 -55 -20 rrcurveto
          194 hmoveto
          33 callsubr
          48 -12 168 -141 13 -13 3 8 5 37 -2 7 -155 5 callsubr
          -10 -6 -172 -146 -55 -20 rrcurveto
          endchar
        </CharString>
        <CharString name="guillemotright">
          23 61 -21 383 -20 hstem
          488 251 rmoveto
          -55 20 -177 141 -15 11 19 callsubr
          -149 -139 -2 -7 -1 -37 3 -8 rlinecurve
          9 9 181 145 49 11 callsubr
          -194 hmoveto
          -55 20 -172 146 -10 6 19 callsubr
          -155 -139 -2 -7 5 -37 3 -8 rlinecurve
          13 13 168 141 48 11 callsubr
          endchar
        </CharString>
        <CharString name="guilsinglleft">
          -91 81 -21 323 -20 hstem
          59 241 rmoveto
          33 callsubr
          48 -12 189 -112 12 -12 3 8 5 37 -2 7 -175 109 rcurveline
          2 vlineto
          169 108 3 13 0 33 -3 6 rlinecurve
          -10 -7 -192 -115 -55 -20 rrcurveto
          endchar
        </CharString>
        <CharString name="guilsinglright">
          -91 81 -21 323 -20 hstem
          341 241 rmoveto
          -55 20 -192 115 -10 7 -5 -5 2 -36 3 -11 169 -108 rcurveline
          -2 vlineto
          -175 -109 -2 -7 5 -37 3 -8 rlinecurve
          12 12 189 112 48 11 callsubr
          endchar
        </CharString>
        <CharString name="h">
          76 -26 callsubr
          375 67 318 -20 hstemhm
          93 85 216 85 hintmask 10111100
          24 678 rmoveto
          -36 callsubr
          -544 -87 callsubr
          hintmask 01111100
          -64 callgsubr
          hintmask 10111100
          -94 callgsubr
          278 vlineto
          15 31 40 11 37 hhcurveto
          75 33 -29 11 callgsubr
          hintmask 01111100
          -64 callgsubr
          hintmask 10111100
          -59 callsubr
          -54 44 -88 -60 -46 -27 -31 -53 vhcurveto
          357 vlineto
          15 -1 -2 4 -17 hhcurveto
          -45 -23 -47 -17 -51 -13 rrcurveto
          endchar
        </CharString>
        <CharString name="hyphen">
          -111 184 58 -38 -21 60 25 callsubr
          67 243 -6 callsubr
          65 1 33 20 callsubr
          35 60 -1 22 -30 callsubr
          hintmask 10000000
          -24 -32 -1 -40 20 callsubr
          -32 -73 1 -28 hhcurveto
          endchar
        </CharString>
        <CharString name="i">
          -193 -26 callsubr
          568 117 hstemhm
          93 118 -103 85 hintmask 10101000
          193 -96 callsubr
          hintmask 10101000
          -94 callgsubr
          hintmask 10110000
          -100 554 -7 callsubr
        </CharString>
        <CharString name="iacute">
          14 callsubr
          716 -88 callgsubr
          -100 464 -94 callsubr
        </CharString>
        <CharString name="icircumflex">
          14 callsubr
          707 -88 callgsubr
          -26 636 rmoveto
          -31 -14 -1 -1 -24 hvcurveto
          -96 -179 rlineto
          -101 callgsubr
          109 125 rcurveline
          110 -125 -102 callsubr
          -94 174 -33 callsubr
        </CharString>
        <CharString name="idieresis">
          14 callsubr
          543 39 callgsubr
          -2 119 -4 85 -23 118 hintmask 10101000
          198 -97 callgsubr
          hintmask 01110100
          -64 callgsubr
          hintmask 10101000
          -94 callgsubr
          hintmask 10110100
          -200 530 -106 callsubr
        </CharString>
        <CharString name="igrave">
          14 callsubr
          716 -88 callgsubr
          -86 645 -87 callgsubr
        </CharString>
        <CharString name="j">
          -228 -247 -21 836 117 hstemhm
          82 118 -98 85 hintmask 11010000
          188 -42 callgsubr
          -21 -10 -24 -9 -26 -7 -35 -11 -39 -6 -19 -4 9 -32 rcurveline
          3 11 12 1 11 hhcurveto
          36 18 -17 -33 hvcurveto
          -271 vlineto
          -117 -26 -96 -87 -79 vhcurveto
          -5 -3 -1 -5 5 -5 8 -10 rcurveline
          -5 4 5 -2 5 hhcurveto
          86 49 91 123 149 vvcurveto
          hintmask 11100000
          -105 572 -7 callsubr
        </CharString>
        <CharString name="k">
          24 -26 callsubr
          442 -20 338 -20 hstemhm
          93 85 hintmask 10111000
          178 241 rmoveto
          500 -44 callsubr
          hintmask 01111000
          -64 callgsubr
          hintmask 10111000
          40 8 -3 40 hhcurveto
          -9 40 rlineto
          -39 4 -4 7 23 vvcurveto
          151 vlineto
          13 -3 24 -19 17 -21 49 -62 43 -50 51 -69 rrcurveto
          hintmask 01111000
          1 23 30 1 27 hhcurveto
          hintmask 10111000
          31 16 24 callsubr
          3 -20 11 -28 25 rlinecurve
          -48 43 -79 89 -32 47 -2 3 0 2 2 2 116 122 rcurveline
          23 21 19 6 43 hhcurveto
          4 hlineto
          -8 37 rlineto
          -1 -24 -35 17 callgsubr
          -27 -30 callgsubr
          39 3 -2 -11 -15 -107 -114 -43 -24 hvcurveto
          endchar
        </CharString>
        <CharString name="l">
          -222 -26 callsubr
          760 -20 hstemhm
          93 85 hintmask 10110000
          178 71 rmoveto
          670 -44 callsubr
          hintmask 01110000
          -64 callgsubr
          hintmask 10110000
          39 22 -81 callsubr
          -7 7 23 vvcurveto
          endchar
        </CharString>
        <CharString name="less">
          14 41 -21 504 -20 hstem
          65 303 rmoveto
          -4 -9 10 -54 7 -7 389 -213 rcurveline
          6 11 -4 50 -2 12 -311 178 rcurveline
          4 vlineto
          311 177 5 15 1 51 -6 6 rlinecurve
          endchar
        </CharString>
        <CharString name="logicalnot">
          170 300 52 hstem
          504 52 vstem
          504 20 rmoveto
          19 -7 28 9 7 8 rrcurveto
          21 -2 74 31 122 2 43 16 vvcurveto
          4 1 11 -11 vhcurveto
          -47 -101 -2 -33 -28 -232 2 -24 hhcurveto
          -21 callsubr
          21 221 2 31 19 62 -2 50 hhcurveto
          5 2 -2 -5 hvcurveto
          -43 2 -66 -25 -28 -2 -85 -24 vvcurveto
          endchar
        </CharString>
        <CharString name="m">
          354 0 callsubr
          107 85 197 85 197 85 cntrmask 00001110
          hintmask 10101110
          38 368 rmoveto
          -13 callsubr
          hintmask 01101110
          -64 callgsubr
          hintmask 10101110
          -94 callgsubr
          276 vlineto
          13 24 30 15 37 hhcurveto
          75 31 -29 11 callgsubr
          hintmask 01101110
          -64 callgsubr
          hintmask 10101110
          -36 callgsubr
          17 -2 16 -3 15 vhcurveto
          19 27 39 14 29 hhcurveto
          75 32 -28 11 callgsubr
          hintmask 01101110
          -64 callgsubr
          hintmask 10101110
          -59 callsubr
          -53 44 -92 -56 -51 -25 -35 -49 vhcurveto
          41 -23 -41 19 -56 hhcurveto
          -61 -44 -29 -29 -40 hvcurveto
          -2 50 rlineto
          hintmask 10011110
          -57 callsubr
          rrcurveto
          endchar
        </CharString>
        <CharString name="macron">
          -70 541 60 hstem
          100 601 -41 callgsubr
          53 111 3 -3 53 hvcurveto
          -35 callsubr
          -5 -45 -115 5 -48 hhcurveto
          endchar
        </CharString>
        <CharString name="minus">
          37 223 55 -36 -21 60 25 callsubr
          47 281 -6 callsubr
          148 2 32 20 callsubr
          -31 callgsubr
          hintmask 10000000
          -25 -131 -3 -41 20 callsubr
          -32 -155 3 -28 hhcurveto
          endchar
        </CharString>
        <CharString name="mu">
          15 -247 -21 256 66 388 -20 hstem
          15 59 234 85 vstem
          313 56 rmoveto
          -57 14 -11 12 29 72 29 24 42 vhcurveto
          3 4 1 2 11 vvcurveto
          8 -1 5 -3 3 vhcurveto
          -9 -23 -25 -11 -23 hhcurveto
          -16 -2 34 10 hvcurveto
          342 20 callgsubr
          1 -325 rlineto
          -53 callgsubr
          267 20 callgsubr
          -283 vlineto
          -145 4 -262 28 43 36 21 10 16 -47 88 -5 129 vhcurveto
          4 2 2 3 vhcurveto
          4 hlineto
          -9 22 25 -5 28 hhcurveto
          93 45 53 15 17 hvcurveto
          endchar
        </CharString>
        <CharString name="multiply">
          62 77 -21 408 -20 hstem
          70 95 rmoveto
          -18 9 35 -3 11 hhcurveto
          14 14 99 102 40 40 44 -47 114 -117 13 -10 rrcurveto
          8 11 7 35 15 vvcurveto
          -13 13 -98 92 -43 43 43 43 112 106 13 13 -11 9 -35 5 -15 1 -139 -141 rcurveline
          -161 163 rlineto
          -18 -9 -3 -35 -11 vvcurveto
          151 -144 rlineto
          endchar
        </CharString>
        <CharString name="n">
          91 0 callsubr
          107 85 216 85 hintmask 10101100
          38 368 rmoveto
          -13 callsubr
          hintmask 01101100
          -64 callgsubr
          hintmask 10101100
          -47 callgsubr
          hintmask 01101100
          -64 callgsubr
          hintmask 10101100
          -29 callsubr
          hintmask 10011100
          -57 callsubr
          rrcurveto
          endchar
        </CharString>
        <CharString name="nine">
          32 8 -21 287 50 324 44 hstem
          40 95 253 95 vstem
          180 16 rmoveto
          -8 -8 20 -19 7 -2 rrcurveto
          170 117 114 195 157 vvcurveto
          143 -79 93 -148 -140 -76 -115 -100 -130 104 -73 89 57 50 22 16 16 vhcurveto
          -8 -84 -68 -120 -100 -92 rrcurveto
          187 350 rmoveto
          -27 -19 -45 -15 -39 hhcurveto
          -80 -49 70 103 66 31 85 88 77 57 -70 -104 -52 -2 -31 -19 -25 hvcurveto
          endchar
        </CharString>
        <CharString name="notequal">
          41 144 57 92 56 hstem
          47 351 -41 callgsubr
          22 142 -16 callsubr
          -53 -92 rlineto
          -59 -81 2 -19 hhcurveto
          -48 callsubr
          13 51 1 51 hhcurveto
          -89 -153 16 -5 43 4 7 10 rlinecurve
          84 145 rlineto
          27 hlineto
          -31 callgsubr
          -23 -127 -2 -43 hhcurveto
          53 92 rlineto
          61 83 -2 16 -30 callsubr
          -15 -45 -1 -1 -47 hvcurveto
          69 119 -13 11 -45 -11 -4 -2 rlinecurve
          -68 -117 rlineto
          -29 hlineto
          13 callsubr
          endchar
        </CharString>
        <CharString name="ntilde">
          91 -26 callsubr
          369 73 116 71 30 -20 hstemhm
          107 85 216 85 hintmask 10111110
          38 368 rmoveto
          -13 callsubr
          hintmask 01111110
          -64 callgsubr
          hintmask 10111110
          -47 callgsubr
          hintmask 01111110
          -64 callgsubr
          hintmask 10111110
          -29 callsubr
          -57 callsubr
          rrcurveto
          451 235 -105 callgsubr
        </CharString>
        <CharString name="numbersign">
          -33 236 44 139 42 2 -20 22 -20 hstemhm
          hintmask 11000000
          384 281 rmoveto
          -15 -3 -40 1 -49 1 28 136 rcurveline
          -1 35 24 0 9 29 callsubr
          15 -16 22 -15 -3 -42 1 -52 1 33 158 rcurveline
          -15 11 -18 -10 -5 -3 -32 -156 rcurveline
          hintmask 10100000
          1 -35 -38 1 -35 hhcurveto
          33 156 -15 11 -18 -10 -5 -3 rlinecurve
          -31 -153 rlineto
          hintmask 10010000
          1 -41 -32 0 -15 hhcurveto
          -9 -12 -14 -21 11 -9 rrcurveto
          hintmask 11000000
          3 -3 37 0 51 -1 -28 -136 rcurveline
          -43 -36 1 -15 hhcurveto
          -9 -12 -14 -22 11 -9 3 -3 41 -1 53 -1 -30 -148 rcurveline
          11 -11 16 -9 5 9 33 159 rcurveline
          -1 36 38 -1 35 hhcurveto
          -29 -146 11 -11 16 -9 5 9 rlinecurve
          32 157 rlineto
          -1 31 24 0 8 29 callsubr
          17 -16 21 rrcurveto
          -112 135 rmoveto
          -27 -136 rlineto
          1 -36 -38 1 -35 hhcurveto
          28 136 rlineto
          endchar
        </CharString>
        <CharString name="o">
          43 -13 callgsubr
          hstem
          38 4 callgsubr
          274 -101 callsubr
          endchar
        </CharString>
        <CharString name="oacute">
          -66 callgsubr
          168 327 -94 callsubr
        </CharString>
        <CharString name="ocircumflex">
          67 -13 callgsubr
          265 -93 callgsubr
          262 499 rmoveto
          -31 -14 -1 -1 -24 hvcurveto
          -96 -179 rlineto
          -101 callgsubr
          109 125 rcurveline
          110 -125 -102 callsubr
          -94 174 -33 callsubr
        </CharString>
        <CharString name="odieresis">
          67 -13 callgsubr
          99 39 callgsubr
          50 91 -8 -16 callgsubr
          -16 91 hintmask 11110010
          -97 callsubr
          hintmask 11101100
          83 391 -106 callsubr
        </CharString>
        <CharString name="oe">
          335 -12 45 -45 -20 callgsubr
          hstemhm
          43 callgsubr
          195 100 hintmask 10111110
          781 -61 callsubr
          -59 -62 -26 -56 -43 hvcurveto
          51 -40 -64 31 -80 hhcurveto
          -34 callsubr
          -26 callgsubr
          71 61 32 51 41 hvcurveto
          -51 35 57 -32 79 hhcurveto
          -75 callgsubr
          hintmask 01111110
          -23 -23 -38 -21 -44 hhcurveto
          -106 -48 88 85 -3 hvcurveto
          20 vlineto
          hintmask 10111110
          -217 -210 -79 callgsubr
          220 257 rmoveto
          59 8 36 52 63 hhcurveto
          60 25 -39 -72 hvcurveto
          endchar
        </CharString>
        <CharString name="ograve">
          -66 callgsubr
          185 508 -87 callgsubr
        </CharString>
        <CharString name="one">
          -146 -24 callsubr
          696 -20 hstemhm
          130 94 hintmask 10110000
          130 80 rmoveto
          1 callgsubr
          hintmask 01110000
          -20 callsubr
          hintmask 10110000
          1 44 51 -29 callgsubr
          hintmask 01110000
          45 39 -45 callsubr
          hintmask 10110000
          -50 callgsubr
          -1 597 rlineto
          15 -3 1 -17 vhcurveto
          -67 -24 -31 -13 -57 -7 -16 -3 -55 callgsubr
          55 14 -15 -35 hvcurveto
          endchar
        </CharString>
        <CharString name="onehalf">
          228 0 54 259 46 332 -20 hstem
          119 57 377 68 vstem
          496 313 rmoveto
          42 15 -26 -30 -53 -25 -47 -32 -42 hvcurveto
          -38 -43 -25 -21 -22 -19 -15 -12 rcurveline
          -1 -8 -2 -10 8 -3 rrcurveto
          1 31 20 0 44 hhcurveto
          37 hlineto
          36 34 0 -3 16 hvcurveto
          5 15 5 18 4 15 rrcurveto
          3 18 1 17 15 vvcurveto
          -29 10 rlineto
          -37 -9 -9 -14 -31 hhcurveto
          -73 hlineto
          19 20 20 20 35 41 rrcurveto
          36 42 25 44 49 vvcurveto
          53 -44 36 -59 -50 -42 -39 -43 -19 vhcurveto
          -4 -9 19 -2 4 3 rrcurveto
          28 20 17 16 33 hhcurveto
          -377 42 -74 callgsubr
        </CharString>
        <CharString name="onequarter">
          219 11 -21 24 -21 698 -20 hstemhm
          119 57 337 56 hintmask 01111000
          565 109 -72 callsubr
          hintmask 10111000
          -12 callgsubr
          -398 82 -74 callgsubr
        </CharString>
        <CharString name="onesuperior">
          -253 430 -20 39 -21 291 -20 61 -20 hstemhm
          89 54 hintmask 01111000
          89 485 rmoveto
          -16 -10 -1 -44 -5 vhcurveto
          10 -35 rlineto
          hintmask 10111000
          1 25 30 1 19 hhcurveto
          hintmask 01111000
          23 32 -1 -1 24 hvcurveto
          -9 35 rlineto
          -35 4 -11 3 15 vvcurveto
          267 vlineto
          7 -1 1 -9 vhcurveto
          -40 -11 -16 -7 -26 -1 -8 -3 rlinecurve
          4 -19 rlineto
          9 hlineto
          27 7 -7 -17 hvcurveto
          endchar
        </CharString>
        <CharString name="ordfeminine">
          -145 452 -21 36 -20 23 -20 240 -20 52 -20 hstemhm
          51 65 85 55 hintmask 01011110
          201 488 rmoveto
          -14 -10 -17 -7 -21 hhcurveto
          -23 -18 11 27 -3 hvcurveto
          27 16 14 76 15 vhcurveto
          hintmask 00111110
          82 -91 rmoveto
          -11 -16 1 31 hvcurveto
          129 vlineto
          65 -31 26 -50 -27 -64 -23 -17 -13 vhcurveto
          -4 -6 -5 -15 -15 vvcurveto
          -6 -1 -5 6 -5 vhcurveto
          -1 1 2 -1 5 hhcurveto
          16 24 9 1 1 hvcurveto
          44 vlineto
          5 10 13 3 11 hhcurveto
          41 10 -29 -40 hvcurveto
          -38 vlineto
          -119 -22 -31 -19 -47 vvcurveto
          hintmask 10011110
          -42 38 -22 37 vhcurveto
          4 hlineto
          30 1 32 21 13 20 rrcurveto
          -31 3 7 -11 15 hhcurveto
          19 51 15 3 6 hvcurveto
          -3 4 0 5 -1 5 -1 8 rcurveline
          hintmask 00111110
          -1 -1 -2 0 -2 hhcurveto
          endchar
        </CharString>
        <CharString name="ordmasculine">
          -132 451 -21 292 -20 hstem
          20 59 173 59 vstem
          171 459 rmoveto
          -61 -31 62 66 60 20 48 60 53 40 -55 -75 -63 -24 -43 -57 hvcurveto
          -151 113 rmoveto
          -85 60 -57 86 81 64 66 82 87 -59 57 -88 -81 -63 -68 -82 vhcurveto
          endchar
        </CharString>
        <CharString name="oslash">
          43 -13 callgsubr
          31 -20 hstem
          38 4 callgsubr
          419 473 rmoveto
          -40 -58 rlineto
          17 -35 -38 10 -44 hhcurveto
          -34 callsubr
          -73 28 -59 49 -39 hvcurveto
          -44 -63 13 -11 21 -7 8 7 rlinecurve
          36 52 rlineto
          -17 33 40 -10 44 hhcurveto
          45 callsubr
          102 129 76 -30 60 -49 39 hvcurveto
          43 62 rlineto
          15 -11 -20 2 -5 hhcurveto
          -290 -241 rmoveto
          92 33 76 92 33 30 -14 -24 24 vhcurveto
          -180 -260 rlineto
          -21 36 -11 46 48 vvcurveto
          145 -199 rmoveto
          -35 -29 12 24 -24 hvcurveto
          181 260 rlineto
          20 -35 13 -45 -51 vvcurveto
          -95 -38 -70 -88 vhcurveto
          endchar
        </CharString>
        <CharString name="otilde">
          67 -13 callgsubr
          116 71 30 -93 callgsubr
          399 424 -105 callgsubr
        </CharString>
        <CharString name="p">
          57 -237 -21 246 45 354 55 8 -20 hstemhm
          94 85 236 90 hintmask 11101100
          5 callgsubr
          -85 -30 -82 -92 -69 -45 34 60 hvcurveto
          -85 -311 rmoveto
          -45 callgsubr
          72 9 callgsubr
          64 vlineto
          hintmask 11011100
          -22 callsubr
        </CharString>
        <CharString name="paragraph">
          60 -80 -21 22 -21 561 -20 hstemhm
          244 62 52 60 hintmask 01111000
          358 -100 rmoveto
          60 478 hlineto
          30 21 1 81 -25 callsubr
          -44 -17 -23 callgsubr
          -1 -44 -49 1 -41 hhcurveto
          -127 -112 -58 -143 -116 79 -78 108 hvcurveto
          20 hlineto
          hintmask 10111000
          -165 60 vlineto
          5 466 rlineto
          27 16 10 27 vhcurveto
          7 hlineto
          endchar
        </CharString>
        <CharString name="parenleft">
          -125 60 85 vstem
          60 287 rmoveto
          -176 67 -168 155 -139 vhcurveto
          12 -9 47 21 5 vvcurveto
          -125 128 -71 143 195 vvcurveto
          195 61 144 135 127 vhcurveto
          5 -47 21 -12 -9 vhcurveto
          -139 -123 -83 -172 -188 vvcurveto
          endchar
        </CharString>
        <CharString name="parenright">
          -125 216 85 vstem
          301 287 rmoveto
          188 -83 172 -139 123 vhcurveto
          -12 9 -47 -21 -5 vvcurveto
          135 -127 61 -144 -195 vvcurveto
          -195 -71 -143 -125 -128 vhcurveto
          -5 47 -21 12 9 vhcurveto
          155 139 67 168 176 vvcurveto
          endchar
        </CharString>
        <CharString name="percent">
          212 9 -21 25 41 337 41 249 -20 58 -20 hstem
          35 72 163 72 30 72 163 72 vstem
          372 162 0 callgsubr
          -337 378 0 callgsubr
          558 179 rmoveto
          -8 hlineto
          -15 -32 -3 -3 -3 hvcurveto
          -47 -78 -299 -494 -102 -145 rrcurveto
          -3 3 -5 3 8 46 7 8 5 vhcurveto
          70 91 363 594 12 23 rrcurveto
          3 -1 4 -3 1 vhcurveto
          -398 -287 -1 callsubr
          337 -378 -1 callsubr
          endchar
        </CharString>
        <CharString name="period">
          -256 -5 32 callgsubr
          vstem
          57 51 rmoveto
          -2 callgsubr
        </CharString>
        <CharString name="periodcentered">
          -256 161 32 callgsubr
          vstem
          57 217 rmoveto
          -2 callgsubr
        </CharString>
        <CharString name="plus">
          82 223 50 202 -20 hstem
          254 51 vstem
          252 -5 rmoveto
          19 -7 29 31 callgsubr
          65 133 -2 16 3 callgsubr
          -19 -115 -2 -62 hhcurveto
          58 2 128 16 vvcurveto
          -14 -31 -8 -10 -10 -33 callgsubr
        </CharString>
        <CharString name="plusminus">
          90 0 56 -37 -21 323 50 202 -20 hstemhm
          254 50 hintmask 01111000
          57 58 -41 callgsubr
          hintmask 10111000
          28 callsubr
          hhcurveto
          hintmask 01111000
          -31 callgsubr
          hintmask 10111000
          -25 -131 -2 -41 13 callsubr
          195 35 rmoveto
          19 -7 28 31 callgsubr
          64 136 -2 15 3 callgsubr
          -19 -117 -2 -61 hhcurveto
          58 2 128 16 vvcurveto
          -15 -28 -7 -11 -11 -33 callgsubr
        </CharString>
        <CharString name="q">
          44 -237 -21 246 55 357 42 hstem
          38 91 243 85 vstem
          457 313 rmoveto
          38 callsubr
          39 3 15 1 5 -1 2 -3 1 -23 3 rcurveline
          -5 1 -4 -1 -4 -3 -41 -37 rcurveline
          13 -27 -55 19 28 callgsubr
          85 -79 106 67 55 38 29 21 hvcurveto
          -239 vlineto
          -26 -18 -5 -69 -3 vhcurveto
          8 -40 rlineto
          1 39 40 -16 callsubr
          39 32 -91 callsubr
          -92 269 rmoveto
          -19 -24 -25 -23 -53 hhcurveto
          -77 -57 68 119 87 29 83 93 69 45 -38 -60 hvcurveto
          endchar
        </CharString>
        <CharString name="question">
          -106 -10 101 505 95 hstemhm
          101 74 -60 102 70 55 hintmask 11101000
          168 398 rmoveto
          -51 -31 -16 -43 -35 vvcurveto
          -58 43 -20 29 -16 vhcurveto
          -1 1 1 0 2 hhcurveto
          7 4 6 7 3 hvcurveto
          -11 12 -5 10 25 vvcurveto
          39 24 24 61 40 vhcurveto
          61 40 21 36 71 vvcurveto
          56 -43 78 -93 40 vhcurveto
          9 -21 -25 4 -19 hhcurveto
          -33 -5 -10 -15 -16 -3 -52 16 -8 hvcurveto
          13 29 6 29 hhcurveto
          61 39 -39 -43 -49 -30 -13 -89 -54 hvcurveto
          hintmask 11011000
          -53 -358 -6 callgsubr
        </CharString>
        <CharString name="questiondown">
          -132 -248 95 505 101 hstemhm
          9 55 70 102 -60 74 hintmask 11101000
          183 45 rmoveto
          51 31 16 43 35 vvcurveto
          58 -43 20 -29 16 vhcurveto
          1 -1 -1 0 -2 hhcurveto
          -7 -4 -6 -7 -3 hvcurveto
          11 -12 5 -10 -25 vvcurveto
          -39 -24 -24 -61 -40 vhcurveto
          -61 -40 -21 -36 -71 vvcurveto
          -56 43 -78 93 -40 vhcurveto
          -9 21 25 -4 19 hhcurveto
          33 5 10 15 16 3 52 -16 8 hvcurveto
          -13 -29 -6 -29 hhcurveto
          -61 -39 39 43 49 30 13 89 54 hvcurveto
          hintmask 11110000
          53 358 -7 callgsubr
        </CharString>
        <CharString name="quotedbl">
          -191 718 26 callgsubr
          hintmask 10000000
          50 669 -37 callgsubr
          124 4 rmoveto
          5 -43 15 -105 3 -51 12 -8 14 4 9 11 rrcurveto
          5 9 23 197 33 vvcurveto
          hintmask 01000000
          -15 callgsubr
          endchar
        </CharString>
        <CharString name="quotesingle">
          -294 772 38 callgsubr
          723 -37 callgsubr
          endchar
        </CharString>
        <CharString name="r">
          -107 0 callsubr
          108 85 hintmask 10011000
          191 386 rmoveto
          -2 48 rlineto
          -57 callsubr
          9 -29 rcurveline
          hintmask 10101000
          -13 callsubr
          hintmask 01101000
          1 39 38 -16 callsubr
          hintmask 10101000
          -18 callgsubr
          211 vlineto
          56 25 28 27 vhcurveto
          6 hlineto
          80 -29 rlineto
          3 45 56 26 hvcurveto
          21 -11 -36 2 -26 hhcurveto
          -49 -38 -38 -32 -27 hvcurveto
          endchar
        </CharString>
        <CharString name="registered">
          -183 429 155 -75 75 -75 142 -142 213 hstemhm
          5 132 -33 111 -33 116 hintmask 00011010
          150 722 rmoveto
          -78 -67 -64 -83 hvcurveto
          hintmask 10001010
          -86 62 -60 83 84 64 62 84 vhcurveto
          hintmask 00011010
          83 -61 64 -87 vhcurveto
          1 -29 rmoveto
          67 53 -48 -70 -69 -47 -47 -73 -63 -54 48 68 70 54 48 63 hvcurveto
          -40 -43 rmoveto
          hintmask 00100100
          -8 -9 1 -9 hhcurveto
          2 -14 rlineto
          11 -1 6 -2 -4 vvcurveto
          -104 vlineto
          -7 -3 2 -15 -3 vhcurveto
          1 -10 rlineto
          9 20 1 7 11 15 -1 9 hhcurveto
          -3 10 rlineto
          hintmask 01001010
          -12 1 -6 2 5 vvcurveto
          45 14 vlineto
          1 0 0 -1 1 hvcurveto
          10 -13 21 -35 11 -13 rrcurveto
          30 hlineto
          7 2 0 -1 7 hvcurveto
          -3 10 -8 1 -2 2 -7 4 rlinecurve
          -39 50 rlineto
          hintmask 00100100
          22 6 11 13 19 vvcurveto
          24 -25 14 -33 vhcurveto
          -5 -36 -1 -5 hhcurveto
          hintmask 10001010
          26 -16 rmoveto
          3 1 0 15 27 2 -12 -12 -16 -6 -13 -25 -3 -7 -1 3 -4 vhcurveto
          endchar
        </CharString>
        <CharString name="ring">
          -86 511 46 93 42 hstem
          109 182 vstem
          109 599 19 callgsubr
          -47 -42 -46 -47 vhcurveto
          42 5 rmoveto
          25 23 21 29 28 20 -13 -31 -27 -20 -22 -28 -29 -23 18 29 vhcurveto
          endchar
        </CharString>
        <CharString name="s">
          -93 -12 45 368 42 hstemhm
          41 75 162 59 -59 77 hintmask 11101000
          38 139 rmoveto
          -5 vlineto
          -29 6 -82 7 -5 vhcurveto
          -16 43 52 -14 43 hhcurveto
          108 58 58 76 hvcurveto
          171 -239 -54 107 vvcurveto
          31 32 24 44 57 35 -37 -52 7 vhcurveto
          40 -4 rlineto
          hintmask 11110000
          3 15 3 26 24 vvcurveto
          23 -3 20 -7 4 vhcurveto
          11 -35 -46 12 -57 hhcurveto
          -72 -76 -40 -79 hvcurveto
          -162 237 39 -102 vvcurveto
          -39 -25 -27 -57 -59 -41 33 77 -11 vhcurveto
          endchar
        </CharString>
        <CharString name="section">
          14 -200 61 -61 146 650 126 -61 61 hstemhm
          38 71 27 68 132 77 28 71 hintmask 10101111
          138 510 rmoveto
          -53 -32 -47 -42 -91 -163 298 -127 -112 vvcurveto
          -51 -41 -31 -64 vhcurveto
          hintmask 01011111
          -76 -35 85 -20 hhcurveto
          -21 -10 -55 -21 -39 80 -31 59 132 73 96 96 5 0 3 -1 2 hvcurveto
          53 32 47 53 90 169 -308 111 122 vvcurveto
          55 39 27 47 vhcurveto
          hintmask 10101111
          75 19 -65 16 hhcurveto
          20 10 57 9 45 -63 15 -44 -104 -83 -99 -92 -8 1 -6 1 -7 hvcurveto
          -29 -117 rmoveto
          32 16 27 23 23 vhcurveto
          56 -128 237 -99 -119 vvcurveto
          -32 -14 -39 -23 -23 vhcurveto
          -51 122 -244 117 119 vvcurveto
          endchar
        </CharString>
        <CharString name="semicolon">
          -188 110 152 0 124 hstemhm
          79 125 -41 69 hintmask 10010000
          103 -51 callgsubr
          hintmask 01100000
          -24 231 rmoveto
          -32 callsubr
          endchar
        </CharString>
        <CharString name="seven">
          28 9 -21 609 84 9 -20 hstemhm
          hintmask 11000000
          216 681 rmoveto
          hintmask 10100000
          -76 1 -49 -1 -31 9 -9 -29 -11 -19 -7 -29 rrcurveto
          -5 -31 -3 -26 -22 vvcurveto
          25 -14 rlineto
          hintmask 11000000
          59 21 24 18 57 hhcurveto
          241 hlineto
          5 5 -6 -5 -3 hvcurveto
          -239 -585 -3 -7 18 1 15 -3 rlinecurve
          9 -3 1 0 7 -1 rrcurveto
          hintmask 10100000
          300 682 rlineto
          4 -2 10 -3 5 vhcurveto
          hintmask 11000000
          -11 -44 -42 3 -41 hhcurveto
          endchar
        </CharString>
        <CharString name="six">
          32 -12 50 324 44 287 -20 hstem
          35 95 253 95 vstem
          378 664 rmoveto
          8 8 -29 18 -8 3 rrcurveto
          -172 -109 -142 -202 -158 vvcurveto
          -143 79 -93 148 140 76 115 100 130 -104 73 -89 -57 -55 -23 -15 -15 vhcurveto
          11 82 109 45 callsubr
          89 rrcurveto
          -227 -350 rmoveto
          27 19 45 21 39 hhcurveto
          80 49 -77 -102 -66 -31 -79 -88 -79 -55 64 104 52 2 31 19 25 hvcurveto
          endchar
        </CharString>
        <CharString name="slash">
          -34 347 734 rmoveto
          -299 -786 17 -6 42 6 6 9 rlinecurve
          299 779 -13 10 -47 -10 -5 -2 rlinecurve
          endchar
        </CharString>
        <CharString name="space">
          -288 endchar
        </CharString>
        <CharString name="sterling">
          77 -30 137 -90 -21 326 46 264 60 hstemhm
          hintmask 01110000
          399 369 rmoveto
          -175 -1 -6 46 rlineto
          168 -24 13 50 71 hhcurveto
          47 46 -38 -10 21 hvcurveto
          18 callsubr
          14 -50 19 -42 -150 -84 -115 -135 13 vhcurveto
          7 -74 rlineto
          -105 hlineto
          -10 callsubr
          91 hlineto
          13 -130 -1 -37 -91 -94 -30 -30 11 -43 7 -2 13 1 21 2 15 7 rrcurveto
          2 2 2 3 1 hvcurveto
          17 -3 8 7 15 vhcurveto
          hintmask 10110000
          57 41 112 -128 93 hhcurveto
          84 67 61 111 15 hvcurveto
          -28 12 -3 1 -44 callgsubr
          -1 rlinecurve
          -2 -1 1 callsubr
          vvcurveto
          -11 -60 -29 -39 -41 -7 rrcurveto
          -8 -61 -61 71 -49 hhcurveto
          -39 -14 -7 -11 -25 hvcurveto
          35 48 65 44 -16 141 rrcurveto
          179 hlineto
          -21 callgsubr
          endchar
        </CharString>
        <CharString name="t">
          -160 -12 54 338 50 99 -20 hstem
          72 85 vstem
          158 362 rmoveto
          11 -1 7 11 vhcurveto
          125 hlineto
          -9 50 rlineto
          -114 hlineto
          -11 -2 6 7 hvcurveto
          -4 80 rlineto
          4 -2 2 -5 vhcurveto
          -11 hlineto
          -29 -57 -30 -44 -61 -19 9 -29 rcurveline
          35 hlineto
          13 0 -7 -11 hvcurveto
          -251 vlineto
          -59 32 -64 81 31 41 8 33 44 vhcurveto
          -18 27 -3 3 -2 1 -3 -2 rlinecurve
          -11 -17 -12 -5 -29 hhcurveto
          -33 -27 32 67 hvcurveto
          endchar
        </CharString>
        <CharString name="thorn">
          57 -237 -21 40 206 0 44 355 55 270 -20 hstemhm
          94 85 236 91 hintmask 10111110
          5 callgsubr
          -84 -30 -84 -92 -69 -45 35 60 hvcurveto
          -85 -311 rmoveto
          hintmask 11011110
          -45 callgsubr
          73 99 147 120 -75 8 callgsubr
          326 vlineto
          -22 callsubr
        </CharString>
        <CharString name="three">
          -47 -12 42 594 68 hstemhm
          303 76 -76 101 hintmask 11010000
          85 345 rmoveto
          -4 2 -20 3 -5 vhcurveto
          4 15 31 2 20 hhcurveto
          70 77 -45 -77 -97 -93 -73 -128 -19 -19 1 1 -23 hvcurveto
          -4 -1 -28 -2 5 hvcurveto
          -7 8 41 -7 49 hhcurveto
          124 161 83 129 104 -95 49 -77 21 hvcurveto
          -5 4 rlineto
          hintmask 11100000
          72 48 80 44 89 vvcurveto
          74 -71 59 -87 -109 -70 -78 -46 -27 vhcurveto
          -11 16 -14 7 vhcurveto
          37 29 59 44 60 hhcurveto
          63 45 -35 -61 -90 -94 -40 -115 -53 hvcurveto
          endchar
        </CharString>
        <CharString name="threequarters">
          259 11 -21 24 -21 468 -20 173 46 31 -20 hstemhm
          204 51 -51 67 282 56 hintmask 01111011
          97 484 rmoveto
          -2 3 -22 1 -4 vhcurveto
          4 9 16 1 11 hhcurveto
          33 34 -20 -34 -49 -46 -37 -65 -10 -8 1 1 -9 hvcurveto
          -5 hlineto
          -3 -1 2 -18 4 -4 rrcurveto
          -2 3 18 -2 28 hhcurveto
          63 95 38 73 53 -47 25 -40 11 hvcurveto
          6 6 rlineto
          hintmask 01111101
          31 22 34 24 43 vvcurveto
          39 -37 30 -49 -57 -36 -42 -23 -13 vhcurveto
          -7 9 -14 5 vhcurveto
          19 15 29 21 31 hhcurveto
          26 19 -13 -25 -42 -44 -20 -55 -28 hvcurveto
          507 -377 -72 callsubr
          hintmask 10111101
          -12 callgsubr
          15 418 -54 callsubr
        </CharString>
        <CharString name="threesuperior">
          -206 436 -21 156 189 -42 42 hstemhm
          183 50 -50 64 hintmask 11001000
          84 591 rmoveto
          -4 -1 -14 3 -4 vhcurveto
          3 7 14 -1 9 hhcurveto
          43 -1 24 -19 -31 vvcurveto
          -44 -44 -33 -61 vhcurveto
          -28 -9 hlineto
          -6 1 -4 1 -1 vhcurveto
          -4 4 20 -4 23 hhcurveto
          69 79 41 64 51 -44 18 -37 11 hvcurveto
          -3 3 rlineto
          hintmask 10110000
          37 16 33 33 45 vvcurveto
          35 -31 28 -47 -53 -42 -45 -24 -13 vhcurveto
          -5 8 -7 3 vhcurveto
          17 16 28 22 31 hhcurveto
          27 18 -17 -21 -41 -41 -25 -53 -23 hvcurveto
          endchar
        </CharString>
        <CharString name="tilde">
          -65 568 71 30 -20 hstem
          390 642 -105 callgsubr
        </CharString>
        <CharString name="two">
          27 1 80 -70 -21 634 68 hstemhm
          341 101 hintmask 10110000
          211 624 rmoveto
          77 53 -49 -81 -105 -59 -95 -67 -83 hvcurveto
          -94 -115 -47 -26 -54 -49 rrcurveto
          -5 2 -13 3 -7 vhcurveto
          5 64 37 0 85 hhcurveto
          73 hlineto
          hintmask 01110000
          63 59 0 -11 31 hvcurveto
          9 31 8 33 5 31 rrcurveto
          5 31 4 26 23 vvcurveto
          -26 15 rlineto
          hintmask 10110000
          -71 -21 -19 -28 -68 hhcurveto
          -162 hlineto
          -2 -1 0 1 hvcurveto
          -1 1 0 1 2 vvcurveto
          38 40 39 41 72 85 rrcurveto
          72 84 53 86 100 vvcurveto
          100 -80 70 -109 -97 -79 -63 -81 -35 vhcurveto
          -16 -8 26 -5 5 hhcurveto
          61 43 39 36 64 hhcurveto
          endchar
        </CharString>
        <CharString name="twosuperior">
          -197 429 55 -39 -21 292 44 hstemhm
          181 64 hintmask 10110000
          127 716 rmoveto
          37 17 -25 -29 -40 -27 -49 -33 -39 hvcurveto
          -46 -54 -20 -12 -25 -22 rrcurveto
          -4 3 -11 3 -4 vhcurveto
          3 31 17 -1 40 hhcurveto
          37 hlineto
          hintmask 01110000
          31 30 0 -5 15 hvcurveto
          7 17 3 18 3 16 rrcurveto
          3 15 1 14 12 vvcurveto
          -16 8 rlineto
          hintmask 10110000
          -27 -11 -12 -13 -31 -52 -5 -1 -5 hhcurveto
          -1 2 0 1 1 1 16 17 18 21 31 37 rrcurveto
          32 36 26 37 39 vvcurveto
          53 -43 33 -57 -47 -37 -30 -39 -17 vhcurveto
          -9 11 -5 4 vhcurveto
          23 17 23 16 28 hhcurveto
          endchar
        </CharString>
        <CharString name="u">
          72 -11 callsubr
          23 -20 hstemhm
          77 85 209 85 hintmask 01011100
          378 -83 callsubr
          hintmask 10101100
          -3 -25 -2 0 -38 hhcurveto
          hintmask 10011100
          -65 callsubr
          -56 callsubr
          hintmask 10101100
          -3 -27 -5 0 -38 hhcurveto
          hintmask 10011100
          -80 callgsubr
          endchar
        </CharString>
        <CharString name="uacute">
          -84 callgsubr
          -161 479 -94 callsubr
        </CharString>
        <CharString name="ucircumflex">
          107 -11 callsubr
          297 -100 callgsubr
          -81 651 rmoveto
          -31 -14 -1 -1 -24 hvcurveto
          -96 -179 rlineto
          -101 callgsubr
          109 125 rcurveline
          110 -125 -102 callsubr
          -94 174 -33 callsubr
        </CharString>
        <CharString name="udieresis">
          107 -11 callsubr
          132 39 callgsubr
          95 85 -47 -16 callgsubr
          -39 85 hintmask 01111001
          -93 callsubr
          hintmask 10111010
          -85 callgsubr
          hintmask 10110110
          -260 544 -106 callsubr
        </CharString>
        <CharString name="ugrave">
          -84 callgsubr
          -162 660 -87 callgsubr
        </CharString>
        <CharString name="underscore">
          69 -63 50 -31 -21 54 25 callsubr
          3 -11 rmoveto
          -21 callsubr
          hintmask 10000000
          21 221 2 31 20 callsubr
          30 228 -2 19 3 callgsubr
          hintmask 10000000
          -22 -200 -2 -36 20 callsubr
          -28 -232 2 -24 hhcurveto
          endchar
        </CharString>
        <CharString name="uni00AD">
          -207 174 50 -31 -21 54 25 callsubr
          23 226 rmoveto
          -21 callsubr
          hintmask 10000000
          21 42 2 31 20 callsubr
          30 75 -2 19 3 callgsubr
          hintmask 10000000
          -22 -47 -2 -36 20 callsubr
          -28 -53 2 -24 hhcurveto
          endchar
        </CharString>
        <CharString name="v">
          -5 18 callgsubr
          -48 callgsubr
          -113 -251 -104 249 -46 callsubr
          hintmask 10100000
          -8 36 rlineto
          hintmask 11000000
          -3 -39 -33 -8 callgsubr
          149 -330 rlineto
          endchar
        </CharString>
        <CharString name="w">
          277 18 callgsubr
          121 265 120 -265 rlineto
          41 hlineto
          -48 callgsubr
          -119 -257 -107 255 rlineto
          -3 8 -3 6 7 -40 callsubr
          hintmask 10100000
          -8 36 rlineto
          hintmask 11000000
          -3 -39 -24 -1 -39 43 callsubr
          -40 -34 -31 callsubr
          7 -14 -53 21 hvcurveto
          5 -12 -101 -220 -107 255 -37 callsubr
          hintmask 11000000
          -3 -39 -25 -8 callgsubr
          149 -330 rlineto
          endchar
        </CharString>
        <CharString name="x">
          35 -26 callsubr
          430 -20 24 34 callgsubr
          345 80 rmoveto
          -45 32 -65 0 -29 hhcurveto
          8 -38 rlineto
          hintmask 01100000
          3 39 34 0 39 43 callsubr
          40 43 0 -3 39 hvcurveto
          -9 38 rlineto
          -32 -16 20 42 -34 hvcurveto
          -117 135 99 133 rlineto
          25 15 23 5 39 hhcurveto
          12 hlineto
          -8 38 rlineto
          -1 -24 -23 17 callgsubr
          -14 -30 callgsubr
          9 hlineto
          12 12 -1 -7 -3 -3 -5 -5 -7 hvcurveto
          -81 -100 -71 87 rlineto
          23 -17 9 13 28 hhcurveto
          18 hlineto
          hintmask 10010000
          -8 39 rlineto
          hintmask 10100000
          -3 -39 -37 -1 -39 hhcurveto
          hintmask 10010000
          -40 -40 1 3 -39 hvcurveto
          9 -39 rlineto
          5 hlineto
          40 22 -2 -40 32 hvcurveto
          107 -126 -124 -157 rlineto
          -32 -24 -15 -3 -44 hhcurveto
          -4 hlineto
          8 -38 rlineto
          hintmask 01100000
          1 24 23 2 32 43 callsubr
          39 34 -2 -1 35 hvcurveto
          -9 38 rlineto
          -5 hlineto
          -19 -21 4 12 3 2 5 4 5 hvcurveto
          97 126 rlineto
          endchar
        </CharString>
        <CharString name="y">
          -13 -267 83 614 -20 24 34 callgsubr
          252 -15 callsubr
          hintmask 11000000
          -3 -39 -33 -1 -39 hhcurveto
          hintmask 10100000
          -85 callsubr
          hintmask 11000000
          -58 callsubr
          endchar
        </CharString>
        <CharString name="yacute">
          -13 -267 83 614 -20 306 -20 hstem
          252 -83 callgsubr
          -116 180 -94 callsubr
        </CharString>
        <CharString name="ydieresis">
          14 -267 83 614 -20 131 118 hstem
          125 -16 callgsubr
          vstem
          278 -83 callgsubr
          -256 244 -106 callsubr
        </CharString>
        <CharString name="yen">
          124 0 40 -22 -21 203 46 66 46 323 -20 hstemhm
          263 88 hintmask 10111100
          505 246 rmoveto
          -154 66 165 hlineto
          -21 callgsubr
          -1 -149 vlineto
          140 240 rlineto
          29 17 35 11 45 hhcurveto
          6 hlineto
          -10 43 rlineto
          -41 -20 -4 -45 -53 -15 4 -57 hhcurveto
          12 -43 63 -3 11 -16 -21 -43 rlinecurve
          -101 -188 -123 201 rlineto
          -6 10 -3 8 7 vvcurveto
          20 27 4 43 vhcurveto
          4 hlineto
          -9 43 rlineto
          -4 -44 -29 -1 -43 hhcurveto
          -47 -44 2 3 -44 hvcurveto
          10 -43 rlineto
          44 24 -17 -55 34 hvcurveto
          130 -208 rlineto
          -147 hlineto
          -10 callsubr
          145 -66 -164 hlineto
          -10 callsubr
          145 -124 hlineto
          -28 -5 -3 -77 -5 vhcurveto
          hintmask 01111100
          8 -43 rlineto
          hintmask 10111100
          1 43 45 2 40 hhcurveto
          hintmask 01111100
          43 35 -45 callsubr
          hintmask 10111100
          -9 43 rlineto
          -68 3 -10 10 23 vvcurveto
          124 165 vlineto
          -21 callgsubr
          endchar
        </CharString>
        <CharString name="z">
          -35 0 51 -33 -21 391 41 13 34 callgsubr
          374 171 rmoveto
          -97 -16 -8 -23 -86 hhcurveto
          -102 hlineto
          -2 -1 0 1 -1 hvcurveto
          -1 1 0 1 1 2 254 359 rcurveline
          4 -2 9 -3 5 vhcurveto
          -5 -59 -16 1 -41 hhcurveto
          -60 hlineto
          hintmask 10010000
          -65 -62 1 12 -39 hvcurveto
          -7 -23 -5 -27 -3 -29 rrcurveto
          -3 -28 -3 -24 -23 vvcurveto
          36 -7 rlineto
          hintmask 01100000
          106 19 31 1 117 hhcurveto
          38 hlineto
          1 21 callgsubr
          hhcurveto
          1 -1 0 -1 -1 vvcurveto
          -1 -1 -15 -1 -243 -367 rrcurveto
          -7 2 -6 3 -5 vhcurveto
          hintmask 10100000
          10 93 3 67 20 callsubr
          57 67 -1 -2 77 hvcurveto
          5 21 2 29 37 vvcurveto
          32 -2 25 -3 33 vhcurveto
          endchar
        </CharString>
        <CharString name="zero">
          107 -12 50 608 47 hstem
          35 105 313 105 vstem
          35 335 rmoveto
          -205 105 -142 159 157 102 166 197 185 -105 157 -159 -163 -96 -181 -177 vhcurveto
          280 -297 rmoveto
          -150 -25 179 156 129 46 144 97 140 30 -181 -150 -140 -36 -137 -102 hvcurveto
          endchar
        </CharString>
      <CharString index="0">
        rmoveto
        72 -165 0 -7 -6 vvcurveto
        -19 -20 -8 -59 -1 vhcurveto
        -4 hlineto
        9 -43 -76 callsubr
        -51 -13 15 64 -27 45 callgsubr
        587 rlineto
        -48 hlineto
        -212 -571 -23 -63 -28 -23 -61 -7 rlinecurve
        -6 hlineto
        10 -46 rlineto
        44 13 4 47 56 23 -4 58 hhcurveto
        -12 46 rlineto
        -64 4 -20 15 27 vvcurveto
        6 1 7 2 8 vhcurveto
        49 136 rlineto
        115 316 rmoveto
        111 -264 rlineto
        -207 hlineto
        return
      </CharString>
      <CharString index="1">
        -99 callsubr
        177 hmoveto
        -35 24 -23 35 33 26 29 31 37 -76 callgsubr
      </CharString>
      <CharString index="2">
        rmoveto
        3 5 0 4 -2 3 rrcurveto
        15 -16 -2 0 -5 hhcurveto
        -19 -15 -15 -11 -28 -27 -139 4 -15 hhcurveto
        -25 -38 -57 -32 -16 hvcurveto
        -3 -4 0 -4 3 -4 13 -12 4 -2 4 1 rrcurveto
        26 15 24 13 34 28 122 -4 18 hhcurveto
        33 42 73 5 3 hvcurveto
        endchar
      </CharString>
      <CharString index="3">
        -49 callgsubr
        -78 -19 7 60 hvcurveto
        210 vlineto
        6 3 3 7 vhcurveto
        159 -92 callsubr
        -159 hlineto
        -7 -3 3 7 hvcurveto
        return
      </CharString>
      <CharString index="4">
        -20 -17 callgsubr
        hintmask 11101100
        -107 callsubr
        hintmask 11110100
        -102 callgsubr
        return
      </CharString>
      <CharString index="5">
        -185 -35 -50 -27 -73 -49 callsubr
        48 3 49 34 21 29 rrcurveto
        -48 5 8 -18 27 hhcurveto
        30 77 26 5 10 hvcurveto
        -2 5 -2 7 -1 8 -2 12 rcurveline
        1 callsubr
        0 -3 hhcurveto
        return
      </CharString>
      <CharString index="6">
        -90 callsubr
        7 -5 8 -2 return
      </CharString>
      <CharString index="7">
        -20 hstemhm
        95 85 209 85 hintmask 01111100
        -93 callsubr
        hintmask 10111100
        -85 callgsubr
        return
      </CharString>
      <CharString index="8">
        933 rmoveto
        -31 -14 -1 -1 -24 hvcurveto
        -106 -139 rlineto
        -101 callgsubr
        119 88 rcurveline
        120 -88 -102 callsubr
        -104 134 -60 callgsubr
        return
      </CharString>
      <CharString index="9">
        249 -107 callgsubr
        return
      </CharString>
      <CharString index="10">
        -42 callgsubr
        -61 -24 -32 -12 -35 -7 -16 -4 -55 callgsubr
        33 17 -17 -33 hvcurveto
        -254 -87 callsubr
        return
      </CharString>
      <CharString index="11">
        -96 callsubr
        hintmask 10110000
        -94 callgsubr
        return
      </CharString>
      <CharString index="12">
        rmoveto
        191 64 113 156 hvcurveto
        372 vlineto
        -81 callgsubr
        -382 vlineto
        -128 -55 -81 -121 -124 -101 52 172 vhcurveto
        368 vlineto
        -9 callgsubr
        return
      </CharString>
      <CharString index="13">
        39 20 -91 callsubr
        return
      </CharString>
      <CharString index="14">
        38 callgsubr
        4 callgsubr
        -97 callsubr
        return
      </CharString>
      <CharString index="15">
        rmoveto
        -200 -85 170 176 159 91 132 152 190 90 -161 -189 -159 -86 -128 -152 hvcurveto
        return
      </CharString>
      <CharString index="16">
        7 8 rlinecurve
        1 1 0 2 2 vvcurveto
        return
      </CharString>
      <CharString index="17">
        38 callgsubr
        91 195 100 vstem
        -100 callsubr
        return
      </CharString>
      <CharString index="18">
        1 71 hhcurveto
        86 39 -32 -96 16 hvcurveto
        32 -3 rlineto
        -78 callgsubr
        return
      </CharString>
      <CharString index="19">
        -20 hstemhm
        113 85 hintmask 10110000
        198 -96 callgsubr
        return
      </CharString>
      <CharString index="20">
        -65 callgsubr
        158 -166 -64 callsubr
      </CharString>
      <CharString index="21">
        24 callgsubr
        -8 44 rlineto
        33 callgsubr
        -45 -38 2 1 -43 hvcurveto
        -1 callgsubr
        hintmask 01111000
        -20 callsubr
        hintmask 10111000
        -35 callgsubr
        hintmask 01111000
        -34 callgsubr
        hintmask 10111000
        -50 callgsubr
        endchar
      </CharString>
      <CharString index="22">
        -56 callsubr
        -3 -27 -5 0 -38 hhcurveto
        -80 callgsubr
        return
      </CharString>
      <CharString index="23">
        107 -11 callsubr
        306 -100 callgsubr
        return
      </CharString>
      <CharString index="24">
        -15 callsubr
        -3 -39 -33 -1 -39 hhcurveto
        -85 callsubr
        -58 callsubr
        return
      </CharString>
      <CharString index="25">
        -77 callgsubr
        rlineto
        return
      </CharString>
      <CharString index="26">
        30 12 1 71 -25 callsubr
        -1 -44 -28 -23 callgsubr
        -45 -29 2 1 -43 hvcurveto
        -50 callsubr
        return
      </CharString>
      <CharString index="27">
        -39 -11 0 3 -27 hvcurveto
        7 35 callgsubr
        8 -6 -23 vvcurveto
        -222 vlineto
        -108 55 -43 88 93 45 53 15 17 vhcurveto
        return
      </CharString>
      <CharString index="28">
        -57 callgsubr
        84 62 -85 -117 -95 -38 -70 -88 hvcurveto
        return
      </CharString>
      <CharString index="29">
        3 33 2 31 32 vvcurveto
        39 0 24 -7 15 vhcurveto
        return
      </CharString>
      <CharString index="30">
        -71 callgsubr
        -44 return
      </CharString>
      <CharString index="31">
        -24 21 -36 -32 -52 callsubr
      </CharString>
      <CharString index="32">
        61 63 26 55 51 -73 callgsubr
        return
      </CharString>
      <CharString index="33">
        rmoveto
        -13 -8 -1 -47 -3 vhcurveto
        5 -37 rlineto
        14 16 1 51 13 13 -1 52 hhcurveto
        -5 38 rlineto
        -35 3 -11 4 10 vvcurveto
        -1 294 rlineto
        11 0 1 -16 vhcurveto
        -11 -5 -15 -5 -11 -5 -11 -4 -16 -5 -9 -1 -21 -4 rcurveline
        3 -19 rlineto
        15 hlineto
        29 7 -8 -15 hvcurveto
        412 100 -54 callsubr
      </CharString>
      <CharString index="34">
        hvcurveto
        -22 25 rlineto
        2 -2 -44 callgsubr
        hhcurveto
        -1 -2 1 callsubr
        hvcurveto
        return
      </CharString>
      <CharString index="35">
        95 91 2 69 hhcurveto
        17 46 168 17 hvcurveto
        -34 6 rlineto
        return
      </CharString>
      <CharString index="36">
        -70 callsubr
        9 return
      </CharString>
      <CharString index="37">
        -45 -29 -82 callgsubr
        55 -5 9 -9 -25 vvcurveto
        -380 -27 callgsubr
        endchar
      </CharString>
      <CharString index="38">
        -71 rmoveto
        -2 1 21 callgsubr
        hhcurveto
        61 -5 17 -29 -25 vvcurveto
        -40 -52 -14 -48 -5 vhcurveto
        -2 -1 -2 -5 -5 1 -7 3 85 72 22 65 35 -26 38 -60 16 hvcurveto
        return
      </CharString>
      <CharString index="39">
        105 vstem
        48 -67 callgsubr
        return
      </CharString>
      <CharString index="40">
        345 -105 callsubr
        return
      </CharString>
      <CharString index="41">
        67 -13 callgsubr
        274 -93 callgsubr
        return
      </CharString>
      <CharString index="42">
        rmoveto
        -25 -46 -19 -13 -21 hvcurveto
        -1 16 callsubr
        vvcurveto
        return
      </CharString>
      <CharString index="43">
        1 39 32 -16 callsubr
        return
      </CharString>
      <CharString index="44">
        -33 24 -23 33 32 26 29 29 36 -23 20 -35 -31 -26 -27 -31 vhcurveto
        return
      </CharString>
      <CharString index="45">
        -26 -29 -31 vhcurveto
        return
      </CharString>
      <CharString index="46">
        -66 callsubr
        11 -44 rlineto
        return
      </CharString>
      <CharString index="47">
        rlineto
        5 -3 -2 2 -1 hhcurveto
        return
      </CharString>
      <CharString index="48">
        -40 -40 -31 callsubr
        10 -14 -53 24 hvcurveto
        return
      </CharString>
      <CharString index="49">
        rmoveto
        -39 callsubr
        -9 44 -61 callgsubr
        45 22 -18 -58 39 hvcurveto
        195 -275 rlineto
        -235 vlineto
        -30 -4 -1 -81 -8 vhcurveto
        return
      </CharString>
      <CharString index="50">
        rmoveto
        -95 -50 97 102 92 33 76 92 return
      </CharString>
      <CharString index="51">
        -3 49 -27 -21 23 -21 332 57 277 43 1 -20 return
      </CharString>
      <CharString index="52">
        rlinecurve
        9 -29 rlineto
        1 7 5 0 7 hhcurveto
        return
      </CharString>
      <CharString index="53">
        -4 callsubr
        -71 -38 callgsubr
        253 vlineto
        196 290 rlineto
        29 20 31 14 48 hhcurveto
        6 hlineto
        return
      </CharString>
      <CharString index="54">
        -23 -23 -43 -17 -37 hhcurveto
        -64 -42 29 87 hvcurveto
        return
      </CharString>
      <CharString index="55">
        -69 callsubr
        216 -587 rlineto
        48 hlineto
        return
      </CharString>
      <CharString index="56">
        91 rmoveto
        -8 -5 3 -69 13 -11 rrcurveto
        15 2 37 8 -41 vvcurveto
        -56 -66 -64 -17 -17 vhcurveto
        7 -9 28 -12 9 3 rrcurveto
        75 70 33 81 52 vvcurveto
        48 -23 39 -56 -15 -22 -6 -13 -13 vhcurveto
        return
      </CharString>
      <CharString index="57">
        -4 callsubr
        -65 -38 callgsubr
        return
      </CharString>
      <CharString index="58">
        -93 -32 -49 -52 -106 hhcurveto
        -97 hlineto
        return
      </CharString>
      <CharString index="59">
        154 337 18 39 7 15 41 -10 callgsubr
        23 callsubr
        -14 -67 callsubr
        return
      </CharString>
      <CharString index="60">
        -94 callgsubr
        274 vlineto
        15 31 40 13 37 hhcurveto
        75 33 -27 11 callgsubr
        return
      </CharString>
      <CharString index="61">
        12 -44 rlineto
        43 -4 25 -9 -21 vvcurveto
        -9 -4 -10 -9 -13 vhcurveto
        return
      </CharString>
      <CharString index="62">
        -5 callgsubr
        38 -16 callsubr
        -18 callgsubr
        200 vlineto
        -15 27 36 -13 51 hhcurveto
        140 return
      </CharString>
      <CharString index="63">
        -2 1 -1 return
      </CharString>
      <CharString index="64">
        -215 150 -142 219 return
      </CharString>
      <CharString index="65">
        434 rmoveto
        15 -2 1 -17 vhcurveto
        return
      </CharString>
      <CharString index="66">
        rmoveto
        -48 callsubr
        return
      </CharString>
      <CharString index="67">
        105 81 26 31 55 hvcurveto
        14 34 131 9 hvcurveto
        -29 6 rlineto
        -97 -40 -72 -56 -128 hhcurveto
        -174 -117 143 192 160 87 141 183 return
      </CharString>
      <CharString index="68">
        -27 callsubr
        -161 hlineto
        return
      </CharString>
      <CharString index="69">
        5 -11 -2 callsubr
        return
      </CharString>
      <CharString index="70">
        rmoveto
        5 -43 16 -105 3 -51 12 -9 16 5 9 11 rrcurveto
        4 9 21 197 33 vvcurveto
        -15 callgsubr
        return
      </CharString>
      <CharString index="71">
        -94 callgsubr
        222 vlineto
        return
      </CharString>
      <CharString index="72">
        1 44 48 -29 callgsubr
        return
      </CharString>
      <CharString index="73">
        45 38 -45 callsubr
        return
      </CharString>
      <CharString index="74">
        hvcurveto
        -19 2 -107 -58 vvcurveto
        -53 -140 2 -22 hhcurveto
        -21 callsubr
        19 134 2 52 hhcurveto
        -59 -2 -147 -22 vvcurveto
        endchar
      </CharString>
      <CharString index="75">
        -20 23 42 callsubr
        -2 hhcurveto
        -2 -2 22 callgsubr
        hvcurveto
        -23 -23 return
      </CharString>
      <CharString index="76">
        34 163 -2 21 -30 callsubr
        return
      </CharString>
      <CharString index="77">
        2 1 -35 hvcurveto
        9 -38 rlineto
        return
      </CharString>
      <CharString index="78">
        2 41 hhcurveto
        return
      </CharString>
      <CharString index="79">
        -32 callgsubr
        -37 -18 -44 hhcurveto
        -112 -47 94 97 106 58 53 50 hvcurveto
        return
      </CharString>
      <CharString index="80">
        vlineto
        -188 109 -74 188 vhcurveto
        return
      </CharString>
      <CharString index="81">
        -132 92 -88 136 return
      </CharString>
      <CharString index="82">
        vvcurveto
        2 callgsubr
        return
      </CharString>
      <CharString index="83">
        -45 -35 -82 callgsubr
        64 -5 13 21 callsubr
        return
      </CharString>
      <CharString index="84">
        -2 -41 hhcurveto
        return
      </CharString>
      <CharString index="85">
        -45 -29 -82 callgsubr
        55 -5 10 -9 -25 -25 callgsubr
        -28 callsubr
        return
      </CharString>
      <CharString index="86">
        4 17 -11 26 -4 4 rrcurveto
        return
      </CharString>
      <CharString index="87">
        62 193 47 110 42 return
      </CharString>
      <CharString index="88">
        -8 44 rlineto
        return
      </CharString>
      <CharString index="89">
        39 38 -78 callsubr
        -67 -10 13 21 hvcurveto
        return
      </CharString>
      <CharString index="90">
        -5 callsubr
        144 83 return
      </CharString>
      <CharString index="91">
        119 58 118 return
      </CharString>
      <CharString index="92">
        32 callsubr
        -24 -3 -37 -30 -21 -16 rrcurveto
        return
      </CharString>
      <CharString index="93">
        -142 -24 callsubr
        672 41 return
      </CharString>
      <CharString index="94">
        -12 45 367 42 return
      </CharString>
      <CharString index="95">
        2 11 -2 -1 11 hvcurveto
        10 7 -1 -1 11 hvcurveto
        -48 167 rmoveto
        -95 hlineto
        95 118 rlineto
        return
      </CharString>
      <CharString index="96">
        -10 44 rlineto
        -45 -19 -4 -47 -57 -15 4 -58 hhcurveto
        return
      </CharString>
      <CharString index="97">
        5 rlinecurve
        4 hlineto
        -8 37 rlineto
        return
      </CharString>
      <CharString index="98">
        30 9 16 callgsubr
        return
      </CharString>
      <CharString index="99">
        -1 -39 43 callsubr
        -59 callgsubr
        return
      </CharString>
      <CharString index="100">
        rmoveto
        29 -22 21 -29 -28 -23 -26 -25 -32 22 -18 29 28 23 24 27 vhcurveto
        endchar
      </CharString>
      <CharString index="101">
        rmoveto
        -29 22 -21 29 28 23 26 25 32 -22 18 -29 -28 -23 -24 -27 vhcurveto
        endchar
      </CharString>
      <CharString index="102">
        -88 callsubr
        1 39 return
      </CharString>
      <CharString index="103">
        -12 56 349 49 return
      </CharString>
      <CharString index="104">
        -71 -8 vhcurveto
        hintmask 01011100
        -20 callsubr
        hintmask 10011100
        13 callgsubr
        hintmask 01011100
        45 return
      </CharString>
      <CharString index="105">
        -63 callgsubr
        endchar
      </CharString>
      <CharString index="106">
        9 -44 rlineto
        65 -5 11 -53 callsubr
        1 callgsubr
        return
      </CharString>
      <CharString index="107">
        rmoveto
        -80 52 -69 83 84 88 79 98 81 -52 70 -83 -85 -87 -80 -99 vhcurveto
        return
      </CharString>
      <CharString index="108">
        -30 -11 -1 -80 -8 vhcurveto
        return
      </CharString>
      <CharString index="109">
        -550 vlineto
        return
      </CharString>
      <CharString index="110">
        hhcurveto
        15 -7 28 -11 11 vhcurveto
        return
      </CharString>
      <CharString index="111">
        91 271 91 vstem
        return
      </CharString>
      <CharString index="112">
        179 345 rmoveto
        19 23 30 23 49 hhcurveto
        77 57 -68 -119 return
      </CharString>
      <CharString index="113">
        -20 hstemhm
        105 91 401 60 hintmask 11011100
        return
      </CharString>
      <CharString index="114">
        -45 callsubr
        -4 callsubr
        -55 5 return
      </CharString>
      <CharString index="115">
        88 -116 -68 -52 -35 -29 -21 hvcurveto
        return
      </CharString>
      <CharString index="116">
        99 147 120 -74 8 callgsubr
        return
      </CharString>
      <CharString index="117">
        -14 callsubr
        211 12 callgsubr
        return
      </CharString>
      <CharString index="118">
        -87 hvcurveto
        -188 -87 callsubr
        return
      </CharString>
      <CharString index="119">
        -20 hstem
        48 29 callgsubr
        return
      </CharString>
      <CharString index="120">
        1 44 28 -29 callgsubr
        return
      </CharString>
      <CharString index="121">
        -1 -44 -35 -23 callgsubr
        return
      </CharString>
      <CharString index="122">
        7 0 1 3 3 hvcurveto
        return
      </CharString>
      <CharString index="123">
        38 callsubr
        vhcurveto
        return
      </CharString>
      <CharString index="124">
        -2 -32 hhcurveto
        -39 return
      </CharString>
      <CharString index="125">
        21 -21 430 26 callgsubr
        hintmask 11000000
        254 hmoveto
        return
      </CharString>
      <CharString index="126">
        rmoveto
        -48 41 -40 48 51 42 48 45 52 -41 36 -52 return
      </CharString>
      <CharString index="127">
        vlineto
        34 callsubr
        -3 hhcurveto
        -31 -45 -17 -3 -3 hvcurveto
        return
      </CharString>
      <CharString index="128">
        1 -1 1 return
      </CharString>
      <CharString index="129">
        -1 -1 -1 return
      </CharString>
      <CharString index="130">
        1 7 9 0 8 hhcurveto
        8 13 0 -1 7 hvcurveto
        return
      </CharString>
      <CharString index="131">
        rmoveto
        30 11 1 80 8 vhcurveto
        return
      </CharString>
      <CharString index="132">
        47 -4 -20 hstemhm
        116 91 return
      </CharString>
      <CharString index="133">
        -20 24 -20 hstemhm
        return
      </CharString>
      <CharString index="134">
        -150 -331 42 -27 -21 1115 48 hstemhm
        return
      </CharString>
      <CharString index="135">
        -51 hhcurveto
        -110 -108 -78 -167 -130 return
      </CharString>
      <CharString index="136">
        26 callsubr
        vstem
        return
      </CharString>
      <CharString index="137">
        103 36 31 32 vvcurveto
        36 -5 47 -47 vhcurveto
        return
      </CharString>
      <CharString index="138">
        9 7 8 rrcurveto
        19 -2 142 57 vvcurveto
        return
      </CharString>
      <CharString index="139">
        114 hstem
        57 115 return
      </CharString>
      <CharString index="140">
        -1 -44 -48 -23 callgsubr
        return
      </CharString>
      <CharString index="141">
        -20 hstemhm
        hintmask 10100000
        return
      </CharString>
      <CharString index="142">
        -38 rlineto
        47 -5 return
      </CharString>
      <CharString index="143">
        11 -44 rlineto
        45 22 -18 -58 39 hvcurveto
        return
      </CharString>
      <CharString index="144">
        -2 8 rlineto
        -32 40 -6 30 99 vvcurveto
        return
      </CharString>
      <CharString index="145">
        -20 hstem
        50 return
      </CharString>
      <CharString index="146">
        118 hstemhm
        return
      </CharString>
      <CharString index="147">
        -32 40 -175 215 20 vvcurveto
        return
      </CharString>
      <CharString index="148">
        -10 43 rlineto
        -88 -19 8 40 hvcurveto
        return
      </CharString>
      <CharString index="149">
        59 -27 59 217 -20 hstemhm
        50 return
      </CharString>
      <CharString index="150">
        38 91 271 91 return
      </CharString>
      <CharString index="151">
        11 11 6 71 return
      </CharString>
      <CharString index="152">
        hvcurveto
        -236 return
      </CharString>
</ttFont>
